<svg viewBox="0 0 912 160" width="912" height="160" xmlns="http://www.w3.org/2000/svg" xmlns:xlink="http://www.w3.org/1999/xlink" xml:space="preserve">
    <style>
        rect { shape-rendering: crispEdges; }
        tspan, text {
            dominant-baseline: text-before-edge;
            alignment-baseline: text-before-edge;
            white-space: pre;
            font: 14px Courier, monospace;
            fill: #bbbbbb;
        }
        .u { text-decoration: underline; }
    </style>
    <rect width="100%" height="100%" x="0" y="0" style="fill: #000000"/>
    <text x="0" y="0"><tspan x="0" y="0">$</tspan><tspan x="8" y="0"> </tspan><tspan x="16" y="0">f</tspan><tspan x="24" y="0">q</tspan><tspan x="32" y="0"> </tspan><tspan x="40" y="0">&#39;</tspan><tspan x="48" y="0">f</tspan><tspan x="56" y="0">i</tspan><tspan x="64" y="0">r</tspan><tspan x="72" y="0">s</tspan><tspan x="80" y="0">t</tspan><tspan x="88" y="0">(</tspan><tspan x="96" y="0">g</tspan><tspan x="104" y="0">r</tspan><tspan x="112" y="0">e</tspan><tspan x="120" y="0">p</tspan><tspan x="128" y="0">_</tspan><tspan x="136" y="0">b</tspan><tspan x="144" y="0">y</tspan><tspan x="152" y="0">(</tspan><tspan x="160" y="0">.</tspan><tspan x="168" y="0">t</tspan><tspan x="176" y="0">y</tspan><tspan x="184" y="0">p</tspan><tspan x="192" y="0">e</tspan><tspan x="200" y="0"> </tspan><tspan x="208" y="0">=</tspan><tspan x="216" y="0">=</tspan><tspan x="224" y="0"> </tspan><tspan x="232" y="0">&#34;</tspan><tspan x="240" y="0">e</tspan><tspan x="248" y="0">l</tspan><tspan x="256" y="0">s</tspan><tspan x="264" y="0">t</tspan><tspan x="272" y="0">&#34;</tspan><tspan x="280" y="0">)</tspan><tspan x="288" y="0">)</tspan><tspan x="296" y="0">&#39;</tspan><tspan x="304" y="0"> </tspan><tspan x="312" y="0">f</tspan><tspan x="320" y="0">i</tspan><tspan x="328" y="0">l</tspan><tspan x="336" y="0">e</tspan><tspan x="344" y="0">.</tspan><tspan x="352" y="0">m</tspan><tspan x="360" y="0">p</tspan><tspan x="368" y="0">4</tspan></text>
    <text x="0" y="16"><tspan x="0" y="16"> </tspan><tspan x="8" y="16"> </tspan><tspan x="16" y="16"> </tspan><tspan x="24" y="16"> </tspan><tspan x="32" y="16"> </tspan><tspan x="40" y="16">│</tspan><tspan x="48" y="16" style="fill: #bbbb00" class="u">0</tspan><tspan x="56" y="16" style="fill: #bbbb00" class="u">0</tspan><tspan x="64" y="16" style="fill: #bbbb00" class="u"> </tspan><tspan x="72" y="16" style="fill: #bbbb00" class="u">0</tspan><tspan x="80" y="16" style="fill: #bbbb00" class="u">1</tspan><tspan x="88" y="16" style="fill: #bbbb00" class="u"> </tspan><tspan x="96" y="16" style="fill: #bbbb00" class="u">0</tspan><tspan x="104" y="16" style="fill: #bbbb00" class="u">2</tspan><tspan x="112" y="16" style="fill: #bbbb00" class="u"> </tspan><tspan x="120" y="16" style="fill: #bbbb00" class="u">0</tspan><tspan x="128" y="16" style="fill: #bbbb00" class="u">3</tspan><tspan x="136" y="16" style="fill: #bbbb00" class="u"> </tspan><tspan x="144" y="16" style="fill: #bbbb00" class="u">0</tspan><tspan x="152" y="16" style="fill: #bbbb00" class="u">4</tspan><tspan x="160" y="16" style="fill: #bbbb00" class="u"> </tspan><tspan x="168" y="16" style="fill: #bbbb00" class="u">0</tspan><tspan x="176" y="16" style="fill: #bbbb00" class="u">5</tspan><tspan x="184" y="16" style="fill: #bbbb00" class="u"> </tspan><tspan x="192" y="16" style="fill: #bbbb00" class="u">0</tspan><tspan x="200" y="16" style="fill: #bbbb00" class="u">6</tspan><tspan x="208" y="16" style="fill: #bbbb00" class="u"> </tspan><tspan x="216" y="16" style="fill: #bbbb00" class="u">0</tspan><tspan x="224" y="16" style="fill: #bbbb00" class="u">7</tspan><tspan x="232" y="16" style="fill: #bbbb00" class="u"> </tspan><tspan x="240" y="16" style="fill: #bbbb00" class="u">0</tspan><tspan x="248" y="16" style="fill: #bbbb00" class="u">8</tspan><tspan x="256" y="16" style="fill: #bbbb00" class="u"> </tspan><tspan x="264" y="16" style="fill: #bbbb00" class="u">0</tspan><tspan x="272" y="16" style="fill: #bbbb00" class="u">9</tspan><tspan x="280" y="16" style="fill: #bbbb00" class="u"> </tspan><tspan x="288" y="16" style="fill: #bbbb00" class="u">0</tspan><tspan x="296" y="16" style="fill: #bbbb00" class="u">a</tspan><tspan x="304" y="16" style="fill: #bbbb00" class="u"> </tspan><tspan x="312" y="16" style="fill: #bbbb00" class="u">0</tspan><tspan x="320" y="16" style="fill: #bbbb00" class="u">b</tspan><tspan x="328" y="16" style="fill: #bbbb00" class="u"> </tspan><tspan x="336" y="16" style="fill: #bbbb00" class="u">0</tspan><tspan x="344" y="16" style="fill: #bbbb00" class="u">c</tspan><tspan x="352" y="16" style="fill: #bbbb00" class="u"> </tspan><tspan x="360" y="16" style="fill: #bbbb00" class="u">0</tspan><tspan x="368" y="16" style="fill: #bbbb00" class="u">d</tspan><tspan x="376" y="16" style="fill: #bbbb00" class="u"> </tspan><tspan x="384" y="16" style="fill: #bbbb00" class="u">0</tspan><tspan x="392" y="16" style="fill: #bbbb00" class="u">e</tspan><tspan x="400" y="16" style="fill: #bbbb00" class="u"> </tspan><tspan x="408" y="16" style="fill: #bbbb00" class="u">0</tspan><tspan x="416" y="16" style="fill: #bbbb00" class="u">f</tspan><tspan x="424" y="16">│</tspan><tspan x="432" y="16" style="fill: #bbbb00" class="u">0</tspan><tspan x="440" y="16" style="fill: #bbbb00" class="u">1</tspan><tspan x="448" y="16" style="fill: #bbbb00" class="u">2</tspan><tspan x="456" y="16" style="fill: #bbbb00" class="u">3</tspan><tspan x="464" y="16" style="fill: #bbbb00" class="u">4</tspan><tspan x="472" y="16" style="fill: #bbbb00" class="u">5</tspan><tspan x="480" y="16" style="fill: #bbbb00" class="u">6</tspan><tspan x="488" y="16" style="fill: #bbbb00" class="u">7</tspan><tspan x="496" y="16" style="fill: #bbbb00" class="u">8</tspan><tspan x="504" y="16" style="fill: #bbbb00" class="u">9</tspan><tspan x="512" y="16" style="fill: #bbbb00" class="u">a</tspan><tspan x="520" y="16" style="fill: #bbbb00" class="u">b</tspan><tspan x="528" y="16" style="fill: #bbbb00" class="u">c</tspan><tspan x="536" y="16" style="fill: #bbbb00" class="u">d</tspan><tspan x="544" y="16" style="fill: #bbbb00" class="u">e</tspan><tspan x="552" y="16" style="fill: #bbbb00" class="u">f</tspan><tspan x="560" y="16">│</tspan><tspan x="568" y="16">.</tspan><tspan x="576" y="16" style="fill: #5555ff">b</tspan><tspan x="584" y="16" style="fill: #5555ff">o</tspan><tspan x="592" y="16" style="fill: #5555ff">x</tspan><tspan x="600" y="16" style="fill: #5555ff">e</tspan><tspan x="608" y="16" style="fill: #5555ff">s</tspan><tspan x="616" y="16">[</tspan><tspan x="624" y="16" style="fill: #00bbbb">3</tspan><tspan x="632" y="16">]</tspan><tspan x="640" y="16">.</tspan><tspan x="648" y="16" style="fill: #5555ff">b</tspan><tspan x="656" y="16" style="fill: #5555ff">o</tspan><tspan x="664" y="16" style="fill: #5555ff">x</tspan><tspan x="672" y="16" style="fill: #5555ff">e</tspan><tspan x="680" y="16" style="fill: #5555ff">s</tspan><tspan x="688" y="16">[</tspan><tspan x="696" y="16" style="fill: #00bbbb">1</tspan><tspan x="704" y="16">]</tspan><tspan x="712" y="16">.</tspan><tspan x="720" y="16" style="fill: #5555ff">b</tspan><tspan x="728" y="16" style="fill: #5555ff">o</tspan><tspan x="736" y="16" style="fill: #5555ff">x</tspan><tspan x="744" y="16" style="fill: #5555ff">e</tspan><tspan x="752" y="16" style="fill: #5555ff">s</tspan><tspan x="760" y="16">[</tspan><tspan x="768" y="16" style="fill: #00bbbb">1</tspan><tspan x="776" y="16">]</tspan><tspan x="784" y="16">.</tspan><tspan x="792" y="16" style="fill: #5555ff">b</tspan><tspan x="800" y="16" style="fill: #5555ff">o</tspan><tspan x="808" y="16" style="fill: #5555ff">x</tspan><tspan x="816" y="16" style="fill: #5555ff">e</tspan><tspan x="824" y="16" style="fill: #5555ff">s</tspan><tspan x="832" y="16">[</tspan><tspan x="840" y="16" style="fill: #00bbbb">0</tspan><tspan x="848" y="16">]</tspan><tspan x="856" y="16">{</tspan><tspan x="864" y="16">}</tspan><tspan x="872" y="16">:</tspan><tspan x="880" y="16"> </tspan><tspan x="888" y="16">b</tspan><tspan x="896" y="16">o</tspan><tspan x="904" y="16">x</tspan></text>
    <text x="0" y="32"><tspan x="0" y="32" style="fill: #bbbb00">0</tspan><tspan x="8" y="32" style="fill: #bbbb00">x</tspan><tspan x="16" y="32" style="fill: #bbbb00">d</tspan><tspan x="24" y="32" style="fill: #bbbb00">6</tspan><tspan x="32" y="32" style="fill: #bbbb00">0</tspan><tspan x="40" y="32">│</tspan><tspan x="48" y="32"> </tspan><tspan x="56" y="32"> </tspan><tspan x="64" y="32"> </tspan><tspan x="72" y="32"> </tspan><tspan x="80" y="32"> </tspan><tspan x="88" y="32"> </tspan><tspan x="96" y="32"> </tspan><tspan x="104" y="32"> </tspan><tspan x="112" y="32"> </tspan><tspan x="120" y="32"> </tspan><tspan x="128" y="32"> </tspan><tspan x="136" y="32"> </tspan><tspan x="144" y="32"> </tspan><tspan x="152" y="32"> </tspan><tspan x="160" y="32"> </tspan><tspan x="168" y="32" style="fill: #555555">0</tspan><tspan x="176" y="32" style="fill: #555555">0</tspan><tspan x="184" y="32"> </tspan><tspan x="192" y="32" style="fill: #555555">0</tspan><tspan x="200" y="32" style="fill: #555555">0</tspan><tspan x="208" y="32"> </tspan><tspan x="216" y="32" style="fill: #555555">0</tspan><tspan x="224" y="32" style="fill: #555555">0</tspan><tspan x="232" y="32"> </tspan><tspan x="240" y="32" style="fill: #ffffff">1</tspan><tspan x="248" y="32" style="fill: #ffffff">c</tspan><tspan x="256" y="32"> </tspan><tspan x="264" y="32"> </tspan><tspan x="272" y="32"> </tspan><tspan x="280" y="32"> </tspan><tspan x="288" y="32"> </tspan><tspan x="296" y="32"> </tspan><tspan x="304" y="32"> </tspan><tspan x="312" y="32"> </tspan><tspan x="320" y="32"> </tspan><tspan x="328" y="32"> </tspan><tspan x="336" y="32"> </tspan><tspan x="344" y="32"> </tspan><tspan x="352" y="32"> </tspan><tspan x="360" y="32"> </tspan><tspan x="368" y="32"> </tspan><tspan x="376" y="32"> </tspan><tspan x="384" y="32"> </tspan><tspan x="392" y="32"> </tspan><tspan x="400" y="32"> </tspan><tspan x="408" y="32"> </tspan><tspan x="416" y="32"> </tspan><tspan x="424" y="32">│</tspan><tspan x="432" y="32"> </tspan><tspan x="440" y="32"> </tspan><tspan x="448" y="32"> </tspan><tspan x="456" y="32"> </tspan><tspan x="464" y="32"> </tspan><tspan x="472" y="32" style="fill: #555555">.</tspan><tspan x="480" y="32" style="fill: #555555">.</tspan><tspan x="488" y="32" style="fill: #555555">.</tspan><tspan x="496" y="32" style="fill: #ffffff">.</tspan><tspan x="504" y="32"> </tspan><tspan x="512" y="32"> </tspan><tspan x="520" y="32"> </tspan><tspan x="528" y="32"> </tspan><tspan x="536" y="32"> </tspan><tspan x="544" y="32"> </tspan><tspan x="552" y="32"> </tspan><tspan x="560" y="32">│</tspan><tspan x="568" y="32"> </tspan><tspan x="576" y="32"> </tspan><tspan x="584" y="32" style="fill: #5555ff">s</tspan><tspan x="592" y="32" style="fill: #5555ff">i</tspan><tspan x="600" y="32" style="fill: #5555ff">z</tspan><tspan x="608" y="32" style="fill: #5555ff">e</tspan><tspan x="616" y="32">:</tspan><tspan x="624" y="32"> </tspan><tspan x="632" y="32" style="fill: #00bbbb">2</tspan><tspan x="640" y="32" style="fill: #00bbbb">8</tspan></text>
    <text x="0" y="48"><tspan x="0" y="48" style="fill: #bbbb00">0</tspan><tspan x="8" y="48" style="fill: #bbbb00">x</tspan><tspan x="16" y="48" style="fill: #bbbb00">d</tspan><tspan x="24" y="48" style="fill: #bbbb00">6</tspan><tspan x="32" y="48" style="fill: #bbbb00">0</tspan><tspan x="40" y="48">│</tspan><tspan x="48" y="48"> </tspan><tspan x="56" y="48"> </tspan><tspan x="64" y="48"> </tspan><tspan x="72" y="48"> </tspan><tspan x="80" y="48"> </tspan><tspan x="88" y="48"> </tspan><tspan x="96" y="48"> </tspan><tspan x="104" y="48"> </tspan><tspan x="112" y="48"> </tspan><tspan x="120" y="48"> </tspan><tspan x="128" y="48"> </tspan><tspan x="136" y="48"> </tspan><tspan x="144" y="48"> </tspan><tspan x="152" y="48"> </tspan><tspan x="160" y="48"> </tspan><tspan x="168" y="48"> </tspan><tspan x="176" y="48"> </tspan><tspan x="184" y="48"> </tspan><tspan x="192" y="48"> </tspan><tspan x="200" y="48"> </tspan><tspan x="208" y="48"> </tspan><tspan x="216" y="48"> </tspan><tspan x="224" y="48"> </tspan><tspan x="232" y="48"> </tspan><tspan x="240" y="48"> </tspan><tspan x="248" y="48"> </tspan><tspan x="256" y="48"> </tspan><tspan x="264" y="48">6</tspan><tspan x="272" y="48">5</tspan><tspan x="280" y="48"> </tspan><tspan x="288" y="48">6</tspan><tspan x="296" y="48">c</tspan><tspan x="304" y="48"> </tspan><tspan x="312" y="48">7</tspan><tspan x="320" y="48">3</tspan><tspan x="328" y="48"> </tspan><tspan x="336" y="48">7</tspan><tspan x="344" y="48">4</tspan><tspan x="352" y="48"> </tspan><tspan x="360" y="48"> </tspan><tspan x="368" y="48"> </tspan><tspan x="376" y="48"> </tspan><tspan x="384" y="48"> </tspan><tspan x="392" y="48"> </tspan><tspan x="400" y="48"> </tspan><tspan x="408" y="48"> </tspan><tspan x="416" y="48"> </tspan><tspan x="424" y="48">│</tspan><tspan x="432" y="48"> </tspan><tspan x="440" y="48"> </tspan><tspan x="448" y="48"> </tspan><tspan x="456" y="48"> </tspan><tspan x="464" y="48"> </tspan><tspan x="472" y="48"> </tspan><tspan x="480" y="48"> </tspan><tspan x="488" y="48"> </tspan><tspan x="496" y="48"> </tspan><tspan x="504" y="48">e</tspan><tspan x="512" y="48">l</tspan><tspan x="520" y="48">s</tspan><tspan x="528" y="48">t</tspan><tspan x="536" y="48"> </tspan><tspan x="544" y="48"> </tspan><tspan x="552" y="48"> </tspan><tspan x="560" y="48">│</tspan><tspan x="568" y="48"> </tspan><tspan x="576" y="48"> </tspan><tspan x="584" y="48" style="fill: #5555ff">t</tspan><tspan x="592" y="48" style="fill: #5555ff">y</tspan><tspan x="600" y="48" style="fill: #5555ff">p</tspan><tspan x="608" y="48" style="fill: #5555ff">e</tspan><tspan x="616" y="48">:</tspan><tspan x="624" y="48"> </tspan><tspan x="632" y="48" style="fill: #00bb00">&#34;</tspan><tspan x="640" y="48" style="fill: #00bb00">e</tspan><tspan x="648" y="48" style="fill: #00bb00">l</tspan><tspan x="656" y="48" style="fill: #00bb00">s</tspan><tspan x="664" y="48" style="fill: #00bb00">t</tspan><tspan x="672" y="48" style="fill: #00bb00">&#34;</tspan><tspan x="680" y="48"> </tspan><tspan x="688" y="48">(</tspan><tspan x="696" y="48">A</tspan><tspan x="704" y="48">n</tspan><tspan x="712" y="48"> </tspan><tspan x="720" y="48">e</tspan><tspan x="728" y="48">d</tspan><tspan x="736" y="48">i</tspan><tspan x="744" y="48">t</tspan><tspan x="752" y="48"> </tspan><tspan x="760" y="48">l</tspan><tspan x="768" y="48">i</tspan><tspan x="776" y="48">s</tspan><tspan x="784" y="48">t</tspan><tspan x="792" y="48">)</tspan></text>
    <text x="0" y="64"><tspan x="0" y="64" style="fill: #bbbb00">0</tspan><tspan x="8" y="64" style="fill: #bbbb00">x</tspan><tspan x="16" y="64" style="fill: #bbbb00">d</tspan><tspan x="24" y="64" style="fill: #bbbb00">6</tspan><tspan x="32" y="64" style="fill: #bbbb00">0</tspan><tspan x="40" y="64">│</tspan><tspan x="48" y="64"> </tspan><tspan x="56" y="64"> </tspan><tspan x="64" y="64"> </tspan><tspan x="72" y="64"> </tspan><tspan x="80" y="64"> </tspan><tspan x="88" y="64"> </tspan><tspan x="96" y="64"> </tspan><tspan x="104" y="64"> </tspan><tspan x="112" y="64"> </tspan><tspan x="120" y="64"> </tspan><tspan x="128" y="64"> </tspan><tspan x="136" y="64"> </tspan><tspan x="144" y="64"> </tspan><tspan x="152" y="64"> </tspan><tspan x="160" y="64"> </tspan><tspan x="168" y="64"> </tspan><tspan x="176" y="64"> </tspan><tspan x="184" y="64"> </tspan><tspan x="192" y="64"> </tspan><tspan x="200" y="64"> </tspan><tspan x="208" y="64"> </tspan><tspan x="216" y="64"> </tspan><tspan x="224" y="64"> </tspan><tspan x="232" y="64"> </tspan><tspan x="240" y="64"> </tspan><tspan x="248" y="64"> </tspan><tspan x="256" y="64"> </tspan><tspan x="264" y="64"> </tspan><tspan x="272" y="64"> </tspan><tspan x="280" y="64"> </tspan><tspan x="288" y="64"> </tspan><tspan x="296" y="64"> </tspan><tspan x="304" y="64"> </tspan><tspan x="312" y="64"> </tspan><tspan x="320" y="64"> </tspan><tspan x="328" y="64"> </tspan><tspan x="336" y="64"> </tspan><tspan x="344" y="64"> </tspan><tspan x="352" y="64"> </tspan><tspan x="360" y="64" style="fill: #555555">0</tspan><tspan x="368" y="64" style="fill: #555555">0</tspan><tspan x="376" y="64"> </tspan><tspan x="384" y="64"> </tspan><tspan x="392" y="64"> </tspan><tspan x="400" y="64"> </tspan><tspan x="408" y="64"> </tspan><tspan x="416" y="64"> </tspan><tspan x="424" y="64">│</tspan><tspan x="432" y="64"> </tspan><tspan x="440" y="64"> </tspan><tspan x="448" y="64"> </tspan><tspan x="456" y="64"> </tspan><tspan x="464" y="64"> </tspan><tspan x="472" y="64"> </tspan><tspan x="480" y="64"> </tspan><tspan x="488" y="64"> </tspan><tspan x="496" y="64"> </tspan><tspan x="504" y="64"> </tspan><tspan x="512" y="64"> </tspan><tspan x="520" y="64"> </tspan><tspan x="528" y="64"> </tspan><tspan x="536" y="64" style="fill: #555555">.</tspan><tspan x="544" y="64"> </tspan><tspan x="552" y="64"> </tspan><tspan x="560" y="64">│</tspan><tspan x="568" y="64"> </tspan><tspan x="576" y="64"> </tspan><tspan x="584" y="64" style="fill: #5555ff">v</tspan><tspan x="592" y="64" style="fill: #5555ff">e</tspan><tspan x="600" y="64" style="fill: #5555ff">r</tspan><tspan x="608" y="64" style="fill: #5555ff">s</tspan><tspan x="616" y="64" style="fill: #5555ff">i</tspan><tspan x="624" y="64" style="fill: #5555ff">o</tspan><tspan x="632" y="64" style="fill: #5555ff">n</tspan><tspan x="640" y="64">:</tspan><tspan x="648" y="64"> </tspan><tspan x="656" y="64" style="fill: #00bbbb">0</tspan></text>
    <text x="0" y="80"><tspan x="0" y="80" style="fill: #bbbb00">0</tspan><tspan x="8" y="80" style="fill: #bbbb00">x</tspan><tspan x="16" y="80" style="fill: #bbbb00">d</tspan><tspan x="24" y="80" style="fill: #bbbb00">6</tspan><tspan x="32" y="80" style="fill: #bbbb00">0</tspan><tspan x="40" y="80">│</tspan><tspan x="48" y="80"> </tspan><tspan x="56" y="80"> </tspan><tspan x="64" y="80"> </tspan><tspan x="72" y="80"> </tspan><tspan x="80" y="80"> </tspan><tspan x="88" y="80"> </tspan><tspan x="96" y="80"> </tspan><tspan x="104" y="80"> </tspan><tspan x="112" y="80"> </tspan><tspan x="120" y="80"> </tspan><tspan x="128" y="80"> </tspan><tspan x="136" y="80"> </tspan><tspan x="144" y="80"> </tspan><tspan x="152" y="80"> </tspan><tspan x="160" y="80"> </tspan><tspan x="168" y="80"> </tspan><tspan x="176" y="80"> </tspan><tspan x="184" y="80"> </tspan><tspan x="192" y="80"> </tspan><tspan x="200" y="80"> </tspan><tspan x="208" y="80"> </tspan><tspan x="216" y="80"> </tspan><tspan x="224" y="80"> </tspan><tspan x="232" y="80"> </tspan><tspan x="240" y="80"> </tspan><tspan x="248" y="80"> </tspan><tspan x="256" y="80"> </tspan><tspan x="264" y="80"> </tspan><tspan x="272" y="80"> </tspan><tspan x="280" y="80"> </tspan><tspan x="288" y="80"> </tspan><tspan x="296" y="80"> </tspan><tspan x="304" y="80"> </tspan><tspan x="312" y="80"> </tspan><tspan x="320" y="80"> </tspan><tspan x="328" y="80"> </tspan><tspan x="336" y="80"> </tspan><tspan x="344" y="80"> </tspan><tspan x="352" y="80"> </tspan><tspan x="360" y="80"> </tspan><tspan x="368" y="80"> </tspan><tspan x="376" y="80"> </tspan><tspan x="384" y="80" style="fill: #555555">0</tspan><tspan x="392" y="80" style="fill: #555555">0</tspan><tspan x="400" y="80"> </tspan><tspan x="408" y="80" style="fill: #555555">0</tspan><tspan x="416" y="80" style="fill: #555555">0</tspan><tspan x="424" y="80">│</tspan><tspan x="432" y="80"> </tspan><tspan x="440" y="80"> </tspan><tspan x="448" y="80"> </tspan><tspan x="456" y="80"> </tspan><tspan x="464" y="80"> </tspan><tspan x="472" y="80"> </tspan><tspan x="480" y="80"> </tspan><tspan x="488" y="80"> </tspan><tspan x="496" y="80"> </tspan><tspan x="504" y="80"> </tspan><tspan x="512" y="80"> </tspan><tspan x="520" y="80"> </tspan><tspan x="528" y="80"> </tspan><tspan x="536" y="80"> </tspan><tspan x="544" y="80" style="fill: #555555">.</tspan><tspan x="552" y="80" style="fill: #555555">.</tspan><tspan x="560" y="80">│</tspan><tspan x="568" y="80"> </tspan><tspan x="576" y="80"> </tspan><tspan x="584" y="80" style="fill: #5555ff">f</tspan><tspan x="592" y="80" style="fill: #5555ff">l</tspan><tspan x="600" y="80" style="fill: #5555ff">a</tspan><tspan x="608" y="80" style="fill: #5555ff">g</tspan><tspan x="616" y="80" style="fill: #5555ff">s</tspan><tspan x="624" y="80">:</tspan><tspan x="632" y="80"> </tspan><tspan x="640" y="80" style="fill: #00bbbb">0</tspan></text>
    <text x="0" y="96"><tspan x="0" y="96" style="fill: #bbbb00">0</tspan><tspan x="8" y="96" style="fill: #bbbb00">x</tspan><tspan x="16" y="96" style="fill: #bbbb00">d</tspan><tspan x="24" y="96" style="fill: #bbbb00">7</tspan><tspan x="32" y="96" style="fill: #bbbb00">0</tspan><tspan x="40" y="96">│</tspan><tspan x="48" y="96" style="fill: #555555">0</tspan><tspan x="56" y="96" style="fill: #555555">0</tspan><tspan x="64" y="96"> </tspan><tspan x="72" y="96"> </tspan><tspan x="80" y="96"> </tspan><tspan x="88" y="96"> </tspan><tspan x="96" y="96"> </tspan><tspan x="104" y="96"> </tspan><tspan x="112" y="96"> </tspan><tspan x="120" y="96"> </tspan><tspan x="128" y="96"> </tspan><tspan x="136" y="96"> </tspan><tspan x="144" y="96"> </tspan><tspan x="152" y="96"> </tspan><tspan x="160" y="96"> </tspan><tspan x="168" y="96"> </tspan><tspan x="176" y="96"> </tspan><tspan x="184" y="96"> </tspan><tspan x="192" y="96"> </tspan><tspan x="200" y="96"> </tspan><tspan x="208" y="96"> </tspan><tspan x="216" y="96"> </tspan><tspan x="224" y="96"> </tspan><tspan x="232" y="96"> </tspan><tspan x="240" y="96"> </tspan><tspan x="248" y="96"> </tspan><tspan x="256" y="96"> </tspan><tspan x="264" y="96"> </tspan><tspan x="272" y="96"> </tspan><tspan x="280" y="96"> </tspan><tspan x="288" y="96"> </tspan><tspan x="296" y="96"> </tspan><tspan x="304" y="96"> </tspan><tspan x="312" y="96"> </tspan><tspan x="320" y="96"> </tspan><tspan x="328" y="96"> </tspan><tspan x="336" y="96"> </tspan><tspan x="344" y="96"> </tspan><tspan x="352" y="96"> </tspan><tspan x="360" y="96"> </tspan><tspan x="368" y="96"> </tspan><tspan x="376" y="96"> </tspan><tspan x="384" y="96"> </tspan><tspan x="392" y="96"> </tspan><tspan x="400" y="96"> </tspan><tspan x="408" y="96"> </tspan><tspan x="416" y="96"> </tspan><tspan x="424" y="96">│</tspan><tspan x="432" y="96" style="fill: #555555">.</tspan><tspan x="440" y="96"> </tspan><tspan x="448" y="96"> </tspan><tspan x="456" y="96"> </tspan><tspan x="464" y="96"> </tspan><tspan x="472" y="96"> </tspan><tspan x="480" y="96"> </tspan><tspan x="488" y="96"> </tspan><tspan x="496" y="96"> </tspan><tspan x="504" y="96"> </tspan><tspan x="512" y="96"> </tspan><tspan x="520" y="96"> </tspan><tspan x="528" y="96"> </tspan><tspan x="536" y="96"> </tspan><tspan x="544" y="96"> </tspan><tspan x="552" y="96"> </tspan><tspan x="560" y="96">│</tspan></text>
    <text x="0" y="112"><tspan x="0" y="112" style="fill: #bbbb00">0</tspan><tspan x="8" y="112" style="fill: #bbbb00">x</tspan><tspan x="16" y="112" style="fill: #bbbb00">d</tspan><tspan x="24" y="112" style="fill: #bbbb00">7</tspan><tspan x="32" y="112" style="fill: #bbbb00">0</tspan><tspan x="40" y="112">│</tspan><tspan x="48" y="112"> </tspan><tspan x="56" y="112"> </tspan><tspan x="64" y="112"> </tspan><tspan x="72" y="112" style="fill: #555555">0</tspan><tspan x="80" y="112" style="fill: #555555">0</tspan><tspan x="88" y="112"> </tspan><tspan x="96" y="112" style="fill: #555555">0</tspan><tspan x="104" y="112" style="fill: #555555">0</tspan><tspan x="112" y="112"> </tspan><tspan x="120" y="112" style="fill: #555555">0</tspan><tspan x="128" y="112" style="fill: #555555">0</tspan><tspan x="136" y="112"> </tspan><tspan x="144" y="112" style="fill: #ffffff">0</tspan><tspan x="152" y="112" style="fill: #ffffff">1</tspan><tspan x="160" y="112"> </tspan><tspan x="168" y="112"> </tspan><tspan x="176" y="112"> </tspan><tspan x="184" y="112"> </tspan><tspan x="192" y="112"> </tspan><tspan x="200" y="112"> </tspan><tspan x="208" y="112"> </tspan><tspan x="216" y="112"> </tspan><tspan x="224" y="112"> </tspan><tspan x="232" y="112"> </tspan><tspan x="240" y="112"> </tspan><tspan x="248" y="112"> </tspan><tspan x="256" y="112"> </tspan><tspan x="264" y="112"> </tspan><tspan x="272" y="112"> </tspan><tspan x="280" y="112"> </tspan><tspan x="288" y="112"> </tspan><tspan x="296" y="112"> </tspan><tspan x="304" y="112"> </tspan><tspan x="312" y="112"> </tspan><tspan x="320" y="112"> </tspan><tspan x="328" y="112"> </tspan><tspan x="336" y="112"> </tspan><tspan x="344" y="112"> </tspan><tspan x="352" y="112"> </tspan><tspan x="360" y="112"> </tspan><tspan x="368" y="112"> </tspan><tspan x="376" y="112"> </tspan><tspan x="384" y="112"> </tspan><tspan x="392" y="112"> </tspan><tspan x="400" y="112"> </tspan><tspan x="408" y="112"> </tspan><tspan x="416" y="112"> </tspan><tspan x="424" y="112">│</tspan><tspan x="432" y="112"> </tspan><tspan x="440" y="112" style="fill: #555555">.</tspan><tspan x="448" y="112" style="fill: #555555">.</tspan><tspan x="456" y="112" style="fill: #555555">.</tspan><tspan x="464" y="112" style="fill: #ffffff">.</tspan><tspan x="472" y="112"> </tspan><tspan x="480" y="112"> </tspan><tspan x="488" y="112"> </tspan><tspan x="496" y="112"> </tspan><tspan x="504" y="112"> </tspan><tspan x="512" y="112"> </tspan><tspan x="520" y="112"> </tspan><tspan x="528" y="112"> </tspan><tspan x="536" y="112"> </tspan><tspan x="544" y="112"> </tspan><tspan x="552" y="112"> </tspan><tspan x="560" y="112">│</tspan><tspan x="568" y="112"> </tspan><tspan x="576" y="112"> </tspan><tspan x="584" y="112" style="fill: #5555ff">e</tspan><tspan x="592" y="112" style="fill: #5555ff">n</tspan><tspan x="600" y="112" style="fill: #5555ff">t</tspan><tspan x="608" y="112" style="fill: #5555ff">r</tspan><tspan x="616" y="112" style="fill: #5555ff">y</tspan><tspan x="624" y="112" style="fill: #5555ff">_</tspan><tspan x="632" y="112" style="fill: #5555ff">c</tspan><tspan x="640" y="112" style="fill: #5555ff">o</tspan><tspan x="648" y="112" style="fill: #5555ff">u</tspan><tspan x="656" y="112" style="fill: #5555ff">n</tspan><tspan x="664" y="112" style="fill: #5555ff">t</tspan><tspan x="672" y="112">:</tspan><tspan x="680" y="112"> </tspan><tspan x="688" y="112" style="fill: #00bbbb">1</tspan></text>
    <text x="0" y="128"><tspan x="0" y="128" style="fill: #bbbb00">0</tspan><tspan x="8" y="128" style="fill: #bbbb00">x</tspan><tspan x="16" y="128" style="fill: #bbbb00">d</tspan><tspan x="24" y="128" style="fill: #bbbb00">7</tspan><tspan x="32" y="128" style="fill: #bbbb00">0</tspan><tspan x="40" y="128">│</tspan><tspan x="48" y="128"> </tspan><tspan x="56" y="128"> </tspan><tspan x="64" y="128"> </tspan><tspan x="72" y="128"> </tspan><tspan x="80" y="128"> </tspan><tspan x="88" y="128"> </tspan><tspan x="96" y="128"> </tspan><tspan x="104" y="128"> </tspan><tspan x="112" y="128"> </tspan><tspan x="120" y="128"> </tspan><tspan x="128" y="128"> </tspan><tspan x="136" y="128"> </tspan><tspan x="144" y="128"> </tspan><tspan x="152" y="128"> </tspan><tspan x="160" y="128"> </tspan><tspan x="168" y="128" style="fill: #555555">0</tspan><tspan x="176" y="128" style="fill: #555555">0</tspan><tspan x="184" y="128"> </tspan><tspan x="192" y="128" style="fill: #555555">0</tspan><tspan x="200" y="128" style="fill: #555555">0</tspan><tspan x="208" y="128"> </tspan><tspan x="216" y="128" style="fill: #555555">0</tspan><tspan x="224" y="128" style="fill: #555555">0</tspan><tspan x="232" y="128"> </tspan><tspan x="240" y="128">2</tspan><tspan x="248" y="128">8</tspan><tspan x="256" y="128"> </tspan><tspan x="264" y="128" style="fill: #555555">0</tspan><tspan x="272" y="128" style="fill: #555555">0</tspan><tspan x="280" y="128"> </tspan><tspan x="288" y="128" style="fill: #555555">0</tspan><tspan x="296" y="128" style="fill: #555555">0</tspan><tspan x="304" y="128"> </tspan><tspan x="312" y="128" style="fill: #555555">0</tspan><tspan x="320" y="128" style="fill: #555555">0</tspan><tspan x="328" y="128"> </tspan><tspan x="336" y="128" style="fill: #555555">0</tspan><tspan x="344" y="128" style="fill: #555555">0</tspan><tspan x="352" y="128"> </tspan><tspan x="360" y="128" style="fill: #555555">0</tspan><tspan x="368" y="128" style="fill: #555555">0</tspan><tspan x="376" y="128"> </tspan><tspan x="384" y="128" style="fill: #ffffff">0</tspan><tspan x="392" y="128" style="fill: #ffffff">1</tspan><tspan x="400" y="128"> </tspan><tspan x="408" y="128" style="fill: #555555">0</tspan><tspan x="416" y="128" style="fill: #555555">0</tspan><tspan x="424" y="128">│</tspan><tspan x="432" y="128"> </tspan><tspan x="440" y="128"> </tspan><tspan x="448" y="128"> </tspan><tspan x="456" y="128"> </tspan><tspan x="464" y="128"> </tspan><tspan x="472" y="128" style="fill: #555555">.</tspan><tspan x="480" y="128" style="fill: #555555">.</tspan><tspan x="488" y="128" style="fill: #555555">.</tspan><tspan x="496" y="128">(</tspan><tspan x="504" y="128" style="fill: #555555">.</tspan><tspan x="512" y="128" style="fill: #555555">.</tspan><tspan x="520" y="128" style="fill: #555555">.</tspan><tspan x="528" y="128" style="fill: #555555">.</tspan><tspan x="536" y="128" style="fill: #555555">.</tspan><tspan x="544" y="128" style="fill: #ffffff">.</tspan><tspan x="552" y="128" style="fill: #555555">.</tspan><tspan x="560" y="128">│</tspan><tspan x="568" y="128"> </tspan><tspan x="576" y="128"> </tspan><tspan x="584" y="128" style="fill: #5555ff">e</tspan><tspan x="592" y="128" style="fill: #5555ff">n</tspan><tspan x="600" y="128" style="fill: #5555ff">t</tspan><tspan x="608" y="128" style="fill: #5555ff">r</tspan><tspan x="616" y="128" style="fill: #5555ff">i</tspan><tspan x="624" y="128" style="fill: #5555ff">e</tspan><tspan x="632" y="128" style="fill: #5555ff">s</tspan><tspan x="640" y="128">[</tspan><tspan x="648" y="128" style="fill: #00bbbb">0</tspan><tspan x="656" y="128">:</tspan><tspan x="664" y="128" style="fill: #00bbbb">1</tspan><tspan x="672" y="128">]</tspan><tspan x="680" y="128">:</tspan></text>
    <text x="0" y="144"><tspan x="0" y="144" style="fill: #bbbb00">0</tspan><tspan x="8" y="144" style="fill: #bbbb00">x</tspan><tspan x="16" y="144" style="fill: #bbbb00">d</tspan><tspan x="24" y="144" style="fill: #bbbb00">8</tspan><tspan x="32" y="144" style="fill: #bbbb00">0</tspan><tspan x="40" y="144">│</tspan><tspan x="48" y="144" style="fill: #555555">0</tspan><tspan x="56" y="144" style="fill: #555555">0</tspan><tspan x="64" y="144"> </tspan><tspan x="72" y="144"> </tspan><tspan x="80" y="144"> </tspan><tspan x="88" y="144"> </tspan><tspan x="96" y="144"> </tspan><tspan x="104" y="144"> </tspan><tspan x="112" y="144"> </tspan><tspan x="120" y="144"> </tspan><tspan x="128" y="144"> </tspan><tspan x="136" y="144"> </tspan><tspan x="144" y="144"> </tspan><tspan x="152" y="144"> </tspan><tspan x="160" y="144"> </tspan><tspan x="168" y="144"> </tspan><tspan x="176" y="144"> </tspan><tspan x="184" y="144"> </tspan><tspan x="192" y="144"> </tspan><tspan x="200" y="144"> </tspan><tspan x="208" y="144"> </tspan><tspan x="216" y="144"> </tspan><tspan x="224" y="144"> </tspan><tspan x="232" y="144"> </tspan><tspan x="240" y="144"> </tspan><tspan x="248" y="144"> </tspan><tspan x="256" y="144"> </tspan><tspan x="264" y="144"> </tspan><tspan x="272" y="144"> </tspan><tspan x="280" y="144"> </tspan><tspan x="288" y="144"> </tspan><tspan x="296" y="144"> </tspan><tspan x="304" y="144"> </tspan><tspan x="312" y="144"> </tspan><tspan x="320" y="144"> </tspan><tspan x="328" y="144"> </tspan><tspan x="336" y="144"> </tspan><tspan x="344" y="144"> </tspan><tspan x="352" y="144"> </tspan><tspan x="360" y="144"> </tspan><tspan x="368" y="144"> </tspan><tspan x="376" y="144"> </tspan><tspan x="384" y="144"> </tspan><tspan x="392" y="144"> </tspan><tspan x="400" y="144"> </tspan><tspan x="408" y="144"> </tspan><tspan x="416" y="144"> </tspan><tspan x="424" y="144">│</tspan><tspan x="432" y="144" style="fill: #555555">.</tspan><tspan x="440" y="144"> </tspan><tspan x="448" y="144"> </tspan><tspan x="456" y="144"> </tspan><tspan x="464" y="144"> </tspan><tspan x="472" y="144"> </tspan><tspan x="480" y="144"> </tspan><tspan x="488" y="144"> </tspan><tspan x="496" y="144"> </tspan><tspan x="504" y="144"> </tspan><tspan x="512" y="144"> </tspan><tspan x="520" y="144"> </tspan><tspan x="528" y="144"> </tspan><tspan x="536" y="144"> </tspan><tspan x="544" y="144"> </tspan><tspan x="552" y="144"> </tspan><tspan x="560" y="144">│</tspan></text>
</svg>
