<svg viewBox="0 0 1064 256" width="1064" height="256" xmlns="http://www.w3.org/2000/svg" xmlns:xlink="http://www.w3.org/1999/xlink">
    <style>
        rect { shape-rendering: crispEdges; }
        text {
            dominant-baseline: text-before-edge;
            white-space: pre;
            font: 14px Courier, monospace;
            fill: #bbbbbb;
        }
        .u { text-decoration: underline; }
    </style>
    <rect width="100%" height="100%" x="0" y="0" style="fill: #000000"/>
    <text x="0" y="0">$</text>
    <text x="16" y="0">f</text>
    <text x="24" y="0">q</text>
    <text x="40" y="0">&#39;</text>
    <text x="48" y="0">.</text>
    <text x="56" y="0">f</text>
    <text x="64" y="0">r</text>
    <text x="72" y="0">a</text>
    <text x="80" y="0">m</text>
    <text x="88" y="0">e</text>
    <text x="96" y="0">s</text>
    <text x="104" y="0">[</text>
    <text x="112" y="0">1</text>
    <text x="120" y="0">]</text>
    <text x="128" y="0">.</text>
    <text x="136" y="0">h</text>
    <text x="144" y="0">e</text>
    <text x="152" y="0">a</text>
    <text x="160" y="0">d</text>
    <text x="168" y="0">e</text>
    <text x="176" y="0">r</text>
    <text x="192" y="0">|</text>
    <text x="208" y="0">d</text>
    <text x="216" y="0">v</text>
    <text x="224" y="0">&#39;</text>
    <text x="240" y="0">f</text>
    <text x="248" y="0">i</text>
    <text x="256" y="0">l</text>
    <text x="264" y="0">e</text>
    <text x="272" y="0">.</text>
    <text x="280" y="0">m</text>
    <text x="288" y="0">p</text>
    <text x="296" y="0">3</text>
    <text x="40" y="16">│</text>
    <text x="48" y="16" style="fill: #bbbb00" class="u">0</text>
    <text x="56" y="16" style="fill: #bbbb00" class="u">0</text>
    <text x="64" y="16" style="fill: #bbbb00" class="u"> </text>
    <text x="72" y="16" style="fill: #bbbb00" class="u">0</text>
    <text x="80" y="16" style="fill: #bbbb00" class="u">1</text>
    <text x="88" y="16" style="fill: #bbbb00" class="u"> </text>
    <text x="96" y="16" style="fill: #bbbb00" class="u">0</text>
    <text x="104" y="16" style="fill: #bbbb00" class="u">2</text>
    <text x="112" y="16" style="fill: #bbbb00" class="u"> </text>
    <text x="120" y="16" style="fill: #bbbb00" class="u">0</text>
    <text x="128" y="16" style="fill: #bbbb00" class="u">3</text>
    <text x="136" y="16" style="fill: #bbbb00" class="u"> </text>
    <text x="144" y="16" style="fill: #bbbb00" class="u">0</text>
    <text x="152" y="16" style="fill: #bbbb00" class="u">4</text>
    <text x="160" y="16" style="fill: #bbbb00" class="u"> </text>
    <text x="168" y="16" style="fill: #bbbb00" class="u">0</text>
    <text x="176" y="16" style="fill: #bbbb00" class="u">5</text>
    <text x="184" y="16" style="fill: #bbbb00" class="u"> </text>
    <text x="192" y="16" style="fill: #bbbb00" class="u">0</text>
    <text x="200" y="16" style="fill: #bbbb00" class="u">6</text>
    <text x="208" y="16" style="fill: #bbbb00" class="u"> </text>
    <text x="216" y="16" style="fill: #bbbb00" class="u">0</text>
    <text x="224" y="16" style="fill: #bbbb00" class="u">7</text>
    <text x="232" y="16" style="fill: #bbbb00" class="u"> </text>
    <text x="240" y="16" style="fill: #bbbb00" class="u">0</text>
    <text x="248" y="16" style="fill: #bbbb00" class="u">8</text>
    <text x="256" y="16" style="fill: #bbbb00" class="u"> </text>
    <text x="264" y="16" style="fill: #bbbb00" class="u">0</text>
    <text x="272" y="16" style="fill: #bbbb00" class="u">9</text>
    <text x="280" y="16" style="fill: #bbbb00" class="u"> </text>
    <text x="288" y="16" style="fill: #bbbb00" class="u">0</text>
    <text x="296" y="16" style="fill: #bbbb00" class="u">a</text>
    <text x="304" y="16" style="fill: #bbbb00" class="u"> </text>
    <text x="312" y="16" style="fill: #bbbb00" class="u">0</text>
    <text x="320" y="16" style="fill: #bbbb00" class="u">b</text>
    <text x="328" y="16" style="fill: #bbbb00" class="u"> </text>
    <text x="336" y="16" style="fill: #bbbb00" class="u">0</text>
    <text x="344" y="16" style="fill: #bbbb00" class="u">c</text>
    <text x="352" y="16" style="fill: #bbbb00" class="u"> </text>
    <text x="360" y="16" style="fill: #bbbb00" class="u">0</text>
    <text x="368" y="16" style="fill: #bbbb00" class="u">d</text>
    <text x="376" y="16" style="fill: #bbbb00" class="u"> </text>
    <text x="384" y="16" style="fill: #bbbb00" class="u">0</text>
    <text x="392" y="16" style="fill: #bbbb00" class="u">e</text>
    <text x="400" y="16" style="fill: #bbbb00" class="u"> </text>
    <text x="408" y="16" style="fill: #bbbb00" class="u">0</text>
    <text x="416" y="16" style="fill: #bbbb00" class="u">f</text>
    <text x="424" y="16">│</text>
    <text x="432" y="16" style="fill: #bbbb00" class="u">0</text>
    <text x="440" y="16" style="fill: #bbbb00" class="u">1</text>
    <text x="448" y="16" style="fill: #bbbb00" class="u">2</text>
    <text x="456" y="16" style="fill: #bbbb00" class="u">3</text>
    <text x="464" y="16" style="fill: #bbbb00" class="u">4</text>
    <text x="472" y="16" style="fill: #bbbb00" class="u">5</text>
    <text x="480" y="16" style="fill: #bbbb00" class="u">6</text>
    <text x="488" y="16" style="fill: #bbbb00" class="u">7</text>
    <text x="496" y="16" style="fill: #bbbb00" class="u">8</text>
    <text x="504" y="16" style="fill: #bbbb00" class="u">9</text>
    <text x="512" y="16" style="fill: #bbbb00" class="u">a</text>
    <text x="520" y="16" style="fill: #bbbb00" class="u">b</text>
    <text x="528" y="16" style="fill: #bbbb00" class="u">c</text>
    <text x="536" y="16" style="fill: #bbbb00" class="u">d</text>
    <text x="544" y="16" style="fill: #bbbb00" class="u">e</text>
    <text x="552" y="16" style="fill: #bbbb00" class="u">f</text>
    <text x="560" y="16">│</text>
    <text x="568" y="16">.</text>
    <text x="576" y="16" style="fill: #5555ff">f</text>
    <text x="584" y="16" style="fill: #5555ff">r</text>
    <text x="592" y="16" style="fill: #5555ff">a</text>
    <text x="600" y="16" style="fill: #5555ff">m</text>
    <text x="608" y="16" style="fill: #5555ff">e</text>
    <text x="616" y="16" style="fill: #5555ff">s</text>
    <text x="624" y="16">[</text>
    <text x="632" y="16" style="fill: #00bbbb">1</text>
    <text x="640" y="16">]</text>
    <text x="648" y="16">.</text>
    <text x="656" y="16" style="fill: #5555ff">h</text>
    <text x="664" y="16" style="fill: #5555ff">e</text>
    <text x="672" y="16" style="fill: #5555ff">a</text>
    <text x="680" y="16" style="fill: #5555ff">d</text>
    <text x="688" y="16" style="fill: #5555ff">e</text>
    <text x="696" y="16" style="fill: #5555ff">r</text>
    <text x="704" y="16">{</text>
    <text x="712" y="16">}</text>
    <text x="720" y="16">:</text>
    <text x="736" y="16">0</text>
    <text x="744" y="16">x</text>
    <text x="752" y="16">b</text>
    <text x="760" y="16">7</text>
    <text x="768" y="16">9</text>
    <text x="776" y="16">-</text>
    <text x="784" y="16">0</text>
    <text x="792" y="16">x</text>
    <text x="800" y="16">b</text>
    <text x="808" y="16">7</text>
    <text x="816" y="16">d</text>
    <text x="832" y="16">(</text>
    <text x="840" y="16">4</text>
    <text x="848" y="16">)</text>
    <text x="0" y="32" style="fill: #bbbb00">0</text>
    <text x="8" y="32" style="fill: #bbbb00">x</text>
    <text x="16" y="32" style="fill: #bbbb00">b</text>
    <text x="24" y="32" style="fill: #bbbb00">7</text>
    <text x="32" y="32" style="fill: #bbbb00">0</text>
    <text x="40" y="32">│</text>
    <text x="264" y="32" style="fill: #ffffff">f</text>
    <text x="272" y="32" style="fill: #ffffff">f</text>
    <text x="288" y="32" style="fill: #ffffff">f</text>
    <text x="296" y="32" style="fill: #ffffff">b</text>
    <text x="424" y="32">│</text>
    <text x="504" y="32" style="fill: #ffffff">.</text>
    <text x="512" y="32" style="fill: #ffffff">.</text>
    <text x="560" y="32">│</text>
    <text x="584" y="32" style="fill: #5555ff">s</text>
    <text x="592" y="32" style="fill: #5555ff">y</text>
    <text x="600" y="32" style="fill: #5555ff">n</text>
    <text x="608" y="32" style="fill: #5555ff">c</text>
    <text x="616" y="32">:</text>
    <text x="632" y="32" style="fill: #00bbbb">0</text>
    <text x="640" y="32" style="fill: #00bbbb">b</text>
    <text x="648" y="32" style="fill: #00bbbb">1</text>
    <text x="656" y="32" style="fill: #00bbbb">1</text>
    <text x="664" y="32" style="fill: #00bbbb">1</text>
    <text x="672" y="32" style="fill: #00bbbb">1</text>
    <text x="680" y="32" style="fill: #00bbbb">1</text>
    <text x="688" y="32" style="fill: #00bbbb">1</text>
    <text x="696" y="32" style="fill: #00bbbb">1</text>
    <text x="704" y="32" style="fill: #00bbbb">1</text>
    <text x="712" y="32" style="fill: #00bbbb">1</text>
    <text x="720" y="32" style="fill: #00bbbb">1</text>
    <text x="728" y="32" style="fill: #00bbbb">1</text>
    <text x="744" y="32">(</text>
    <text x="752" y="32">v</text>
    <text x="760" y="32">a</text>
    <text x="768" y="32">l</text>
    <text x="776" y="32">i</text>
    <text x="784" y="32">d</text>
    <text x="792" y="32">)</text>
    <text x="808" y="32">0</text>
    <text x="816" y="32">x</text>
    <text x="824" y="32">b</text>
    <text x="832" y="32">7</text>
    <text x="840" y="32">9</text>
    <text x="848" y="32">-</text>
    <text x="856" y="32">0</text>
    <text x="864" y="32">x</text>
    <text x="872" y="32">b</text>
    <text x="880" y="32">7</text>
    <text x="888" y="32">a</text>
    <text x="896" y="32">.</text>
    <text x="904" y="32">3</text>
    <text x="920" y="32">(</text>
    <text x="928" y="32">1</text>
    <text x="936" y="32">.</text>
    <text x="944" y="32">3</text>
    <text x="952" y="32">)</text>
    <text x="0" y="48" style="fill: #bbbb00">0</text>
    <text x="8" y="48" style="fill: #bbbb00">x</text>
    <text x="16" y="48" style="fill: #bbbb00">b</text>
    <text x="24" y="48" style="fill: #bbbb00">7</text>
    <text x="32" y="48" style="fill: #bbbb00">0</text>
    <text x="40" y="48">│</text>
    <text x="288" y="48" style="fill: #ffffff">f</text>
    <text x="296" y="48" style="fill: #ffffff">b</text>
    <text x="424" y="48">│</text>
    <text x="512" y="48" style="fill: #ffffff">.</text>
    <text x="560" y="48">│</text>
    <text x="584" y="48" style="fill: #5555ff">m</text>
    <text x="592" y="48" style="fill: #5555ff">p</text>
    <text x="600" y="48" style="fill: #5555ff">e</text>
    <text x="608" y="48" style="fill: #5555ff">g</text>
    <text x="616" y="48" style="fill: #5555ff">_</text>
    <text x="624" y="48" style="fill: #5555ff">v</text>
    <text x="632" y="48" style="fill: #5555ff">e</text>
    <text x="640" y="48" style="fill: #5555ff">r</text>
    <text x="648" y="48" style="fill: #5555ff">s</text>
    <text x="656" y="48" style="fill: #5555ff">i</text>
    <text x="664" y="48" style="fill: #5555ff">o</text>
    <text x="672" y="48" style="fill: #5555ff">n</text>
    <text x="680" y="48">:</text>
    <text x="696" y="48" style="fill: #00bb00">&#34;</text>
    <text x="704" y="48" style="fill: #00bb00">1</text>
    <text x="712" y="48" style="fill: #00bb00">&#34;</text>
    <text x="728" y="48">(</text>
    <text x="736" y="48" style="fill: #00bbbb">3</text>
    <text x="744" y="48">)</text>
    <text x="760" y="48">(</text>
    <text x="768" y="48">M</text>
    <text x="776" y="48">P</text>
    <text x="784" y="48">E</text>
    <text x="792" y="48">G</text>
    <text x="808" y="48">V</text>
    <text x="816" y="48">e</text>
    <text x="824" y="48">r</text>
    <text x="832" y="48">s</text>
    <text x="840" y="48">i</text>
    <text x="848" y="48">o</text>
    <text x="856" y="48">n</text>
    <text x="872" y="48">1</text>
    <text x="880" y="48">)</text>
    <text x="896" y="48">0</text>
    <text x="904" y="48">x</text>
    <text x="912" y="48">b</text>
    <text x="920" y="48">7</text>
    <text x="928" y="48">a</text>
    <text x="936" y="48">.</text>
    <text x="944" y="48">3</text>
    <text x="952" y="48">-</text>
    <text x="960" y="48">0</text>
    <text x="968" y="48">x</text>
    <text x="976" y="48">b</text>
    <text x="984" y="48">7</text>
    <text x="992" y="48">a</text>
    <text x="1000" y="48">.</text>
    <text x="1008" y="48">5</text>
    <text x="1024" y="48">(</text>
    <text x="1032" y="48">0</text>
    <text x="1040" y="48">.</text>
    <text x="1048" y="48">2</text>
    <text x="1056" y="48">)</text>
    <text x="0" y="64" style="fill: #bbbb00">0</text>
    <text x="8" y="64" style="fill: #bbbb00">x</text>
    <text x="16" y="64" style="fill: #bbbb00">b</text>
    <text x="24" y="64" style="fill: #bbbb00">7</text>
    <text x="32" y="64" style="fill: #bbbb00">0</text>
    <text x="40" y="64">│</text>
    <text x="288" y="64" style="fill: #ffffff">f</text>
    <text x="296" y="64" style="fill: #ffffff">b</text>
    <text x="424" y="64">│</text>
    <text x="512" y="64" style="fill: #ffffff">.</text>
    <text x="560" y="64">│</text>
    <text x="584" y="64" style="fill: #5555ff">l</text>
    <text x="592" y="64" style="fill: #5555ff">a</text>
    <text x="600" y="64" style="fill: #5555ff">y</text>
    <text x="608" y="64" style="fill: #5555ff">e</text>
    <text x="616" y="64" style="fill: #5555ff">r</text>
    <text x="624" y="64">:</text>
    <text x="640" y="64" style="fill: #00bbbb">3</text>
    <text x="656" y="64">(</text>
    <text x="664" y="64" style="fill: #00bbbb">1</text>
    <text x="672" y="64">)</text>
    <text x="688" y="64">(</text>
    <text x="696" y="64">M</text>
    <text x="704" y="64">P</text>
    <text x="712" y="64">E</text>
    <text x="720" y="64">G</text>
    <text x="736" y="64">L</text>
    <text x="744" y="64">a</text>
    <text x="752" y="64">y</text>
    <text x="760" y="64">e</text>
    <text x="768" y="64">r</text>
    <text x="784" y="64">3</text>
    <text x="792" y="64">)</text>
    <text x="808" y="64">0</text>
    <text x="816" y="64">x</text>
    <text x="824" y="64">b</text>
    <text x="832" y="64">7</text>
    <text x="840" y="64">a</text>
    <text x="848" y="64">.</text>
    <text x="856" y="64">5</text>
    <text x="864" y="64">-</text>
    <text x="872" y="64">0</text>
    <text x="880" y="64">x</text>
    <text x="888" y="64">b</text>
    <text x="896" y="64">7</text>
    <text x="904" y="64">a</text>
    <text x="912" y="64">.</text>
    <text x="920" y="64">7</text>
    <text x="936" y="64">(</text>
    <text x="944" y="64">0</text>
    <text x="952" y="64">.</text>
    <text x="960" y="64">2</text>
    <text x="968" y="64">)</text>
    <text x="40" y="80">│</text>
    <text x="424" y="80">│</text>
    <text x="560" y="80">│</text>
    <text x="584" y="80" style="fill: #5555ff">s</text>
    <text x="592" y="80" style="fill: #5555ff">a</text>
    <text x="600" y="80" style="fill: #5555ff">m</text>
    <text x="608" y="80" style="fill: #5555ff">p</text>
    <text x="616" y="80" style="fill: #5555ff">l</text>
    <text x="624" y="80" style="fill: #5555ff">e</text>
    <text x="632" y="80" style="fill: #5555ff">_</text>
    <text x="640" y="80" style="fill: #5555ff">c</text>
    <text x="648" y="80" style="fill: #5555ff">o</text>
    <text x="656" y="80" style="fill: #5555ff">u</text>
    <text x="664" y="80" style="fill: #5555ff">n</text>
    <text x="672" y="80" style="fill: #5555ff">t</text>
    <text x="680" y="80">:</text>
    <text x="696" y="80" style="fill: #00bbbb">1</text>
    <text x="704" y="80" style="fill: #00bbbb">1</text>
    <text x="712" y="80" style="fill: #00bbbb">5</text>
    <text x="720" y="80" style="fill: #00bbbb">2</text>
    <text x="0" y="96" style="fill: #bbbb00">0</text>
    <text x="8" y="96" style="fill: #bbbb00">x</text>
    <text x="16" y="96" style="fill: #bbbb00">b</text>
    <text x="24" y="96" style="fill: #bbbb00">7</text>
    <text x="32" y="96" style="fill: #bbbb00">0</text>
    <text x="40" y="96">│</text>
    <text x="288" y="96" style="fill: #ffffff">f</text>
    <text x="296" y="96" style="fill: #ffffff">b</text>
    <text x="424" y="96">│</text>
    <text x="512" y="96" style="fill: #ffffff">.</text>
    <text x="560" y="96">│</text>
    <text x="584" y="96" style="fill: #5555ff">p</text>
    <text x="592" y="96" style="fill: #5555ff">r</text>
    <text x="600" y="96" style="fill: #5555ff">o</text>
    <text x="608" y="96" style="fill: #5555ff">t</text>
    <text x="616" y="96" style="fill: #5555ff">e</text>
    <text x="624" y="96" style="fill: #5555ff">c</text>
    <text x="632" y="96" style="fill: #5555ff">t</text>
    <text x="640" y="96" style="fill: #5555ff">i</text>
    <text x="648" y="96" style="fill: #5555ff">o</text>
    <text x="656" y="96" style="fill: #5555ff">n</text>
    <text x="664" y="96" style="fill: #5555ff">_</text>
    <text x="672" y="96" style="fill: #5555ff">a</text>
    <text x="680" y="96" style="fill: #5555ff">b</text>
    <text x="688" y="96" style="fill: #5555ff">s</text>
    <text x="696" y="96" style="fill: #5555ff">e</text>
    <text x="704" y="96" style="fill: #5555ff">n</text>
    <text x="712" y="96" style="fill: #5555ff">t</text>
    <text x="720" y="96">:</text>
    <text x="736" y="96" style="fill: #bbbb00">t</text>
    <text x="744" y="96" style="fill: #bbbb00">r</text>
    <text x="752" y="96" style="fill: #bbbb00">u</text>
    <text x="760" y="96" style="fill: #bbbb00">e</text>
    <text x="776" y="96">(</text>
    <text x="784" y="96">N</text>
    <text x="792" y="96">o</text>
    <text x="808" y="96">C</text>
    <text x="816" y="96">R</text>
    <text x="824" y="96">C</text>
    <text x="832" y="96">)</text>
    <text x="848" y="96">0</text>
    <text x="856" y="96">x</text>
    <text x="864" y="96">b</text>
    <text x="872" y="96">7</text>
    <text x="880" y="96">a</text>
    <text x="888" y="96">.</text>
    <text x="896" y="96">7</text>
    <text x="904" y="96">-</text>
    <text x="912" y="96">0</text>
    <text x="920" y="96">x</text>
    <text x="928" y="96">b</text>
    <text x="936" y="96">7</text>
    <text x="944" y="96">b</text>
    <text x="960" y="96">(</text>
    <text x="968" y="96">0</text>
    <text x="976" y="96">.</text>
    <text x="984" y="96">1</text>
    <text x="992" y="96">)</text>
    <text x="0" y="112" style="fill: #bbbb00">0</text>
    <text x="8" y="112" style="fill: #bbbb00">x</text>
    <text x="16" y="112" style="fill: #bbbb00">b</text>
    <text x="24" y="112" style="fill: #bbbb00">7</text>
    <text x="32" y="112" style="fill: #bbbb00">0</text>
    <text x="40" y="112">│</text>
    <text x="312" y="112">5</text>
    <text x="320" y="112">0</text>
    <text x="424" y="112">│</text>
    <text x="520" y="112">P</text>
    <text x="560" y="112">│</text>
    <text x="584" y="112" style="fill: #5555ff">b</text>
    <text x="592" y="112" style="fill: #5555ff">i</text>
    <text x="600" y="112" style="fill: #5555ff">t</text>
    <text x="608" y="112" style="fill: #5555ff">r</text>
    <text x="616" y="112" style="fill: #5555ff">a</text>
    <text x="624" y="112" style="fill: #5555ff">t</text>
    <text x="632" y="112" style="fill: #5555ff">e</text>
    <text x="640" y="112">:</text>
    <text x="656" y="112" style="fill: #00bbbb">6</text>
    <text x="664" y="112" style="fill: #00bbbb">4</text>
    <text x="672" y="112" style="fill: #00bbbb">0</text>
    <text x="680" y="112" style="fill: #00bbbb">0</text>
    <text x="688" y="112" style="fill: #00bbbb">0</text>
    <text x="704" y="112">(</text>
    <text x="712" y="112" style="fill: #00bbbb">5</text>
    <text x="720" y="112">)</text>
    <text x="736" y="112">0</text>
    <text x="744" y="112">x</text>
    <text x="752" y="112">b</text>
    <text x="760" y="112">7</text>
    <text x="768" y="112">b</text>
    <text x="776" y="112">-</text>
    <text x="784" y="112">0</text>
    <text x="792" y="112">x</text>
    <text x="800" y="112">b</text>
    <text x="808" y="112">7</text>
    <text x="816" y="112">b</text>
    <text x="824" y="112">.</text>
    <text x="832" y="112">4</text>
    <text x="848" y="112">(</text>
    <text x="856" y="112">0</text>
    <text x="864" y="112">.</text>
    <text x="872" y="112">4</text>
    <text x="880" y="112">)</text>
    <text x="0" y="128" style="fill: #bbbb00">0</text>
    <text x="8" y="128" style="fill: #bbbb00">x</text>
    <text x="16" y="128" style="fill: #bbbb00">b</text>
    <text x="24" y="128" style="fill: #bbbb00">7</text>
    <text x="32" y="128" style="fill: #bbbb00">0</text>
    <text x="40" y="128">│</text>
    <text x="312" y="128">5</text>
    <text x="320" y="128">0</text>
    <text x="424" y="128">│</text>
    <text x="520" y="128">P</text>
    <text x="560" y="128">│</text>
    <text x="584" y="128" style="fill: #5555ff">s</text>
    <text x="592" y="128" style="fill: #5555ff">a</text>
    <text x="600" y="128" style="fill: #5555ff">m</text>
    <text x="608" y="128" style="fill: #5555ff">p</text>
    <text x="616" y="128" style="fill: #5555ff">l</text>
    <text x="624" y="128" style="fill: #5555ff">e</text>
    <text x="632" y="128" style="fill: #5555ff">_</text>
    <text x="640" y="128" style="fill: #5555ff">r</text>
    <text x="648" y="128" style="fill: #5555ff">a</text>
    <text x="656" y="128" style="fill: #5555ff">t</text>
    <text x="664" y="128" style="fill: #5555ff">e</text>
    <text x="672" y="128">:</text>
    <text x="688" y="128" style="fill: #00bbbb">4</text>
    <text x="696" y="128" style="fill: #00bbbb">4</text>
    <text x="704" y="128" style="fill: #00bbbb">1</text>
    <text x="712" y="128" style="fill: #00bbbb">0</text>
    <text x="720" y="128" style="fill: #00bbbb">0</text>
    <text x="736" y="128">(</text>
    <text x="744" y="128" style="fill: #00bbbb">0</text>
    <text x="752" y="128">)</text>
    <text x="768" y="128">0</text>
    <text x="776" y="128">x</text>
    <text x="784" y="128">b</text>
    <text x="792" y="128">7</text>
    <text x="800" y="128">b</text>
    <text x="808" y="128">.</text>
    <text x="816" y="128">4</text>
    <text x="824" y="128">-</text>
    <text x="832" y="128">0</text>
    <text x="840" y="128">x</text>
    <text x="848" y="128">b</text>
    <text x="856" y="128">7</text>
    <text x="864" y="128">b</text>
    <text x="872" y="128">.</text>
    <text x="880" y="128">6</text>
    <text x="896" y="128">(</text>
    <text x="904" y="128">0</text>
    <text x="912" y="128">.</text>
    <text x="920" y="128">2</text>
    <text x="928" y="128">)</text>
    <text x="0" y="144" style="fill: #bbbb00">0</text>
    <text x="8" y="144" style="fill: #bbbb00">x</text>
    <text x="16" y="144" style="fill: #bbbb00">b</text>
    <text x="24" y="144" style="fill: #bbbb00">7</text>
    <text x="32" y="144" style="fill: #bbbb00">0</text>
    <text x="40" y="144">│</text>
    <text x="312" y="144">5</text>
    <text x="320" y="144">0</text>
    <text x="424" y="144">│</text>
    <text x="520" y="144">P</text>
    <text x="560" y="144">│</text>
    <text x="584" y="144" style="fill: #5555ff">p</text>
    <text x="592" y="144" style="fill: #5555ff">a</text>
    <text x="600" y="144" style="fill: #5555ff">d</text>
    <text x="608" y="144" style="fill: #5555ff">d</text>
    <text x="616" y="144" style="fill: #5555ff">i</text>
    <text x="624" y="144" style="fill: #5555ff">n</text>
    <text x="632" y="144" style="fill: #5555ff">g</text>
    <text x="640" y="144">:</text>
    <text x="656" y="144" style="fill: #00bb00">&#34;</text>
    <text x="664" y="144" style="fill: #00bb00">n</text>
    <text x="672" y="144" style="fill: #00bb00">o</text>
    <text x="680" y="144" style="fill: #00bb00">t</text>
    <text x="688" y="144" style="fill: #00bb00">_</text>
    <text x="696" y="144" style="fill: #00bb00">p</text>
    <text x="704" y="144" style="fill: #00bb00">a</text>
    <text x="712" y="144" style="fill: #00bb00">d</text>
    <text x="720" y="144" style="fill: #00bb00">d</text>
    <text x="728" y="144" style="fill: #00bb00">e</text>
    <text x="736" y="144" style="fill: #00bb00">d</text>
    <text x="744" y="144" style="fill: #00bb00">&#34;</text>
    <text x="760" y="144">(</text>
    <text x="768" y="144" style="fill: #00bbbb">0</text>
    <text x="776" y="144" style="fill: #00bbbb">b</text>
    <text x="784" y="144" style="fill: #00bbbb">0</text>
    <text x="792" y="144">)</text>
    <text x="808" y="144">0</text>
    <text x="816" y="144">x</text>
    <text x="824" y="144">b</text>
    <text x="832" y="144">7</text>
    <text x="840" y="144">b</text>
    <text x="848" y="144">.</text>
    <text x="856" y="144">6</text>
    <text x="864" y="144">-</text>
    <text x="872" y="144">0</text>
    <text x="880" y="144">x</text>
    <text x="888" y="144">b</text>
    <text x="896" y="144">7</text>
    <text x="904" y="144">b</text>
    <text x="912" y="144">.</text>
    <text x="920" y="144">7</text>
    <text x="936" y="144">(</text>
    <text x="944" y="144">0</text>
    <text x="952" y="144">.</text>
    <text x="960" y="144">1</text>
    <text x="968" y="144">)</text>
    <text x="0" y="160" style="fill: #bbbb00">0</text>
    <text x="8" y="160" style="fill: #bbbb00">x</text>
    <text x="16" y="160" style="fill: #bbbb00">b</text>
    <text x="24" y="160" style="fill: #bbbb00">7</text>
    <text x="32" y="160" style="fill: #bbbb00">0</text>
    <text x="40" y="160">│</text>
    <text x="312" y="160">5</text>
    <text x="320" y="160">0</text>
    <text x="424" y="160">│</text>
    <text x="520" y="160">P</text>
    <text x="560" y="160">│</text>
    <text x="584" y="160" style="fill: #5555ff">p</text>
    <text x="592" y="160" style="fill: #5555ff">r</text>
    <text x="600" y="160" style="fill: #5555ff">i</text>
    <text x="608" y="160" style="fill: #5555ff">v</text>
    <text x="616" y="160" style="fill: #5555ff">a</text>
    <text x="624" y="160" style="fill: #5555ff">t</text>
    <text x="632" y="160" style="fill: #5555ff">e</text>
    <text x="640" y="160">:</text>
    <text x="656" y="160" style="fill: #00bbbb">0</text>
    <text x="672" y="160">0</text>
    <text x="680" y="160">x</text>
    <text x="688" y="160">b</text>
    <text x="696" y="160">7</text>
    <text x="704" y="160">b</text>
    <text x="712" y="160">.</text>
    <text x="720" y="160">7</text>
    <text x="728" y="160">-</text>
    <text x="736" y="160">0</text>
    <text x="744" y="160">x</text>
    <text x="752" y="160">b</text>
    <text x="760" y="160">7</text>
    <text x="768" y="160">c</text>
    <text x="784" y="160">(</text>
    <text x="792" y="160">0</text>
    <text x="800" y="160">.</text>
    <text x="808" y="160">1</text>
    <text x="816" y="160">)</text>
    <text x="0" y="176" style="fill: #bbbb00">0</text>
    <text x="8" y="176" style="fill: #bbbb00">x</text>
    <text x="16" y="176" style="fill: #bbbb00">b</text>
    <text x="24" y="176" style="fill: #bbbb00">7</text>
    <text x="32" y="176" style="fill: #bbbb00">0</text>
    <text x="40" y="176">│</text>
    <text x="336" y="176" style="fill: #ffffff">c</text>
    <text x="344" y="176" style="fill: #ffffff">4</text>
    <text x="424" y="176">│</text>
    <text x="528" y="176" style="fill: #ffffff">.</text>
    <text x="560" y="176">│</text>
    <text x="584" y="176" style="fill: #5555ff">c</text>
    <text x="592" y="176" style="fill: #5555ff">h</text>
    <text x="600" y="176" style="fill: #5555ff">a</text>
    <text x="608" y="176" style="fill: #5555ff">n</text>
    <text x="616" y="176" style="fill: #5555ff">n</text>
    <text x="624" y="176" style="fill: #5555ff">e</text>
    <text x="632" y="176" style="fill: #5555ff">l</text>
    <text x="640" y="176" style="fill: #5555ff">s</text>
    <text x="648" y="176">:</text>
    <text x="664" y="176" style="fill: #00bb00">&#34;</text>
    <text x="672" y="176" style="fill: #00bb00">m</text>
    <text x="680" y="176" style="fill: #00bb00">o</text>
    <text x="688" y="176" style="fill: #00bb00">n</text>
    <text x="696" y="176" style="fill: #00bb00">o</text>
    <text x="704" y="176" style="fill: #00bb00">&#34;</text>
    <text x="720" y="176">(</text>
    <text x="728" y="176" style="fill: #00bbbb">0</text>
    <text x="736" y="176" style="fill: #00bbbb">b</text>
    <text x="744" y="176" style="fill: #00bbbb">1</text>
    <text x="752" y="176" style="fill: #00bbbb">1</text>
    <text x="760" y="176">)</text>
    <text x="776" y="176">0</text>
    <text x="784" y="176">x</text>
    <text x="792" y="176">b</text>
    <text x="800" y="176">7</text>
    <text x="808" y="176">c</text>
    <text x="816" y="176">-</text>
    <text x="824" y="176">0</text>
    <text x="832" y="176">x</text>
    <text x="840" y="176">b</text>
    <text x="848" y="176">7</text>
    <text x="856" y="176">c</text>
    <text x="864" y="176">.</text>
    <text x="872" y="176">2</text>
    <text x="888" y="176">(</text>
    <text x="896" y="176">0</text>
    <text x="904" y="176">.</text>
    <text x="912" y="176">2</text>
    <text x="920" y="176">)</text>
    <text x="0" y="192" style="fill: #bbbb00">0</text>
    <text x="8" y="192" style="fill: #bbbb00">x</text>
    <text x="16" y="192" style="fill: #bbbb00">b</text>
    <text x="24" y="192" style="fill: #bbbb00">7</text>
    <text x="32" y="192" style="fill: #bbbb00">0</text>
    <text x="40" y="192">│</text>
    <text x="336" y="192" style="fill: #ffffff">c</text>
    <text x="344" y="192" style="fill: #ffffff">4</text>
    <text x="424" y="192">│</text>
    <text x="528" y="192" style="fill: #ffffff">.</text>
    <text x="560" y="192">│</text>
    <text x="584" y="192" style="fill: #5555ff">c</text>
    <text x="592" y="192" style="fill: #5555ff">h</text>
    <text x="600" y="192" style="fill: #5555ff">a</text>
    <text x="608" y="192" style="fill: #5555ff">n</text>
    <text x="616" y="192" style="fill: #5555ff">n</text>
    <text x="624" y="192" style="fill: #5555ff">e</text>
    <text x="632" y="192" style="fill: #5555ff">l</text>
    <text x="640" y="192" style="fill: #5555ff">_</text>
    <text x="648" y="192" style="fill: #5555ff">m</text>
    <text x="656" y="192" style="fill: #5555ff">o</text>
    <text x="664" y="192" style="fill: #5555ff">d</text>
    <text x="672" y="192" style="fill: #5555ff">e</text>
    <text x="680" y="192">:</text>
    <text x="696" y="192" style="fill: #00bb00">&#34;</text>
    <text x="704" y="192" style="fill: #00bb00">n</text>
    <text x="712" y="192" style="fill: #00bb00">o</text>
    <text x="720" y="192" style="fill: #00bb00">n</text>
    <text x="728" y="192" style="fill: #00bb00">e</text>
    <text x="736" y="192" style="fill: #00bb00">&#34;</text>
    <text x="752" y="192">(</text>
    <text x="760" y="192" style="fill: #00bbbb">0</text>
    <text x="768" y="192" style="fill: #00bbbb">b</text>
    <text x="776" y="192" style="fill: #00bbbb">0</text>
    <text x="784" y="192">)</text>
    <text x="800" y="192">0</text>
    <text x="808" y="192">x</text>
    <text x="816" y="192">b</text>
    <text x="824" y="192">7</text>
    <text x="832" y="192">c</text>
    <text x="840" y="192">.</text>
    <text x="848" y="192">2</text>
    <text x="856" y="192">-</text>
    <text x="864" y="192">0</text>
    <text x="872" y="192">x</text>
    <text x="880" y="192">b</text>
    <text x="888" y="192">7</text>
    <text x="896" y="192">c</text>
    <text x="904" y="192">.</text>
    <text x="912" y="192">4</text>
    <text x="928" y="192">(</text>
    <text x="936" y="192">0</text>
    <text x="944" y="192">.</text>
    <text x="952" y="192">2</text>
    <text x="960" y="192">)</text>
    <text x="0" y="208" style="fill: #bbbb00">0</text>
    <text x="8" y="208" style="fill: #bbbb00">x</text>
    <text x="16" y="208" style="fill: #bbbb00">b</text>
    <text x="24" y="208" style="fill: #bbbb00">7</text>
    <text x="32" y="208" style="fill: #bbbb00">0</text>
    <text x="40" y="208">│</text>
    <text x="336" y="208" style="fill: #ffffff">c</text>
    <text x="344" y="208" style="fill: #ffffff">4</text>
    <text x="424" y="208">│</text>
    <text x="528" y="208" style="fill: #ffffff">.</text>
    <text x="560" y="208">│</text>
    <text x="584" y="208" style="fill: #5555ff">c</text>
    <text x="592" y="208" style="fill: #5555ff">o</text>
    <text x="600" y="208" style="fill: #5555ff">p</text>
    <text x="608" y="208" style="fill: #5555ff">y</text>
    <text x="616" y="208" style="fill: #5555ff">r</text>
    <text x="624" y="208" style="fill: #5555ff">i</text>
    <text x="632" y="208" style="fill: #5555ff">g</text>
    <text x="640" y="208" style="fill: #5555ff">h</text>
    <text x="648" y="208" style="fill: #5555ff">t</text>
    <text x="656" y="208">:</text>
    <text x="672" y="208" style="fill: #00bbbb">0</text>
    <text x="688" y="208">0</text>
    <text x="696" y="208">x</text>
    <text x="704" y="208">b</text>
    <text x="712" y="208">7</text>
    <text x="720" y="208">c</text>
    <text x="728" y="208">.</text>
    <text x="736" y="208">4</text>
    <text x="744" y="208">-</text>
    <text x="752" y="208">0</text>
    <text x="760" y="208">x</text>
    <text x="768" y="208">b</text>
    <text x="776" y="208">7</text>
    <text x="784" y="208">c</text>
    <text x="792" y="208">.</text>
    <text x="800" y="208">5</text>
    <text x="816" y="208">(</text>
    <text x="824" y="208">0</text>
    <text x="832" y="208">.</text>
    <text x="840" y="208">1</text>
    <text x="848" y="208">)</text>
    <text x="0" y="224" style="fill: #bbbb00">0</text>
    <text x="8" y="224" style="fill: #bbbb00">x</text>
    <text x="16" y="224" style="fill: #bbbb00">b</text>
    <text x="24" y="224" style="fill: #bbbb00">7</text>
    <text x="32" y="224" style="fill: #bbbb00">0</text>
    <text x="40" y="224">│</text>
    <text x="336" y="224" style="fill: #ffffff">c</text>
    <text x="344" y="224" style="fill: #ffffff">4</text>
    <text x="424" y="224">│</text>
    <text x="528" y="224" style="fill: #ffffff">.</text>
    <text x="560" y="224">│</text>
    <text x="584" y="224" style="fill: #5555ff">o</text>
    <text x="592" y="224" style="fill: #5555ff">r</text>
    <text x="600" y="224" style="fill: #5555ff">i</text>
    <text x="608" y="224" style="fill: #5555ff">g</text>
    <text x="616" y="224" style="fill: #5555ff">i</text>
    <text x="624" y="224" style="fill: #5555ff">n</text>
    <text x="632" y="224" style="fill: #5555ff">a</text>
    <text x="640" y="224" style="fill: #5555ff">l</text>
    <text x="648" y="224">:</text>
    <text x="664" y="224" style="fill: #00bbbb">1</text>
    <text x="680" y="224">0</text>
    <text x="688" y="224">x</text>
    <text x="696" y="224">b</text>
    <text x="704" y="224">7</text>
    <text x="712" y="224">c</text>
    <text x="720" y="224">.</text>
    <text x="728" y="224">5</text>
    <text x="736" y="224">-</text>
    <text x="744" y="224">0</text>
    <text x="752" y="224">x</text>
    <text x="760" y="224">b</text>
    <text x="768" y="224">7</text>
    <text x="776" y="224">c</text>
    <text x="784" y="224">.</text>
    <text x="792" y="224">6</text>
    <text x="808" y="224">(</text>
    <text x="816" y="224">0</text>
    <text x="824" y="224">.</text>
    <text x="832" y="224">1</text>
    <text x="840" y="224">)</text>
    <text x="0" y="240" style="fill: #bbbb00">0</text>
    <text x="8" y="240" style="fill: #bbbb00">x</text>
    <text x="16" y="240" style="fill: #bbbb00">b</text>
    <text x="24" y="240" style="fill: #bbbb00">7</text>
    <text x="32" y="240" style="fill: #bbbb00">0</text>
    <text x="40" y="240">│</text>
    <text x="336" y="240" style="fill: #ffffff">c</text>
    <text x="344" y="240" style="fill: #ffffff">4</text>
    <text x="424" y="240">│</text>
    <text x="528" y="240" style="fill: #ffffff">.</text>
    <text x="560" y="240">│</text>
    <text x="584" y="240" style="fill: #5555ff">e</text>
    <text x="592" y="240" style="fill: #5555ff">m</text>
    <text x="600" y="240" style="fill: #5555ff">p</text>
    <text x="608" y="240" style="fill: #5555ff">h</text>
    <text x="616" y="240" style="fill: #5555ff">a</text>
    <text x="624" y="240" style="fill: #5555ff">s</text>
    <text x="632" y="240" style="fill: #5555ff">i</text>
    <text x="640" y="240" style="fill: #5555ff">s</text>
    <text x="648" y="240">:</text>
    <text x="664" y="240" style="fill: #00bb00">&#34;</text>
    <text x="672" y="240" style="fill: #00bb00">n</text>
    <text x="680" y="240" style="fill: #00bb00">o</text>
    <text x="688" y="240" style="fill: #00bb00">n</text>
    <text x="696" y="240" style="fill: #00bb00">e</text>
    <text x="704" y="240" style="fill: #00bb00">&#34;</text>
    <text x="720" y="240">(</text>
    <text x="728" y="240" style="fill: #00bbbb">0</text>
    <text x="736" y="240" style="fill: #00bbbb">b</text>
    <text x="744" y="240" style="fill: #00bbbb">0</text>
    <text x="752" y="240">)</text>
    <text x="768" y="240">0</text>
    <text x="776" y="240">x</text>
    <text x="784" y="240">b</text>
    <text x="792" y="240">7</text>
    <text x="800" y="240">c</text>
    <text x="808" y="240">.</text>
    <text x="816" y="240">6</text>
    <text x="824" y="240">-</text>
    <text x="832" y="240">0</text>
    <text x="840" y="240">x</text>
    <text x="848" y="240">b</text>
    <text x="856" y="240">7</text>
    <text x="864" y="240">d</text>
    <text x="880" y="240">(</text>
    <text x="888" y="240">0</text>
    <text x="896" y="240">.</text>
    <text x="904" y="240">2</text>
    <text x="912" y="240">)</text>
</svg>
