<svg height="350" viewBox="50 120 350 350" width="350" xmlns="http://www.w3.org/2000/svg">
  <rect fill="#101010" height="350" width="350" x="50" y="120"></rect>
  <rect height="15" style="fill: #0000ff" transform="rotate(308 246.15325300861684 344.830474276039)" width="15" x="246.15325300861684" y="344.830474276039"></rect>
  <rect height="8" style="fill: #a0a0a0" transform="rotate(330 196 366)" width="8" x="196" y="366"></rect>
  <rect height="10" style="fill: #00d000" transform="rotate(0 225 335)" width="10" x="225" y="335"></rect>
  <rect height="8" style="fill: #a0a0a0" transform="rotate(2 96 356)" width="8" x="96" y="356"></rect>
  <rect height="8" style="fill: #a0a0a0" transform="rotate(346 316 226)" width="8" x="316" y="226"></rect>
  <rect height="8" style="fill: #a0a0a0" transform="rotate(221 306 356)" width="8" x="306" y="356"></rect>
  <rect height="8" style="fill: #a0a0a0" transform="rotate(134 326 436)" width="8" x="326" y="436"></rect>
  <rect height="8" style="fill: #a0a0a0" transform="rotate(207 206 386)" width="8" x="206" y="386"></rect>
  <rect height="8" style="fill: #a0a0a0" transform="rotate(84 286 156)" width="8" x="286" y="156"></rect>
  <rect height="8" style="fill: #a0a0a0" transform="rotate(303 216 296)" width="8" x="216" y="296"></rect>
  <rect height="8" style="fill: #a0a0a0" transform="rotate(42 186 266)" width="8" x="186" y="266"></rect>
  <rect height="8" style="fill: #a0a0a0" transform="rotate(250 186 406)" width="8" x="186" y="406"></rect>
  <rect height="8" style="fill: #a0a0a0" transform="rotate(185 86 406)" width="8" x="86" y="406"></rect>
  <rect height="8" style="fill: #a0a0a0" transform="rotate(64 146 286)" width="8" x="146" y="286"></rect>
  <rect height="8" style="fill: #a0a0a0" transform="rotate(316 326 176)" width="8" x="326" y="176"></rect>
  <rect height="8" style="fill: #a0a0a0" transform="rotate(262 116 256)" width="8" x="116" y="256"></rect>
  <rect height="8" style="fill: #a0a0a0" transform="rotate(338 76 286)" width="8" x="76" y="286"></rect>
  <rect height="8" style="fill: #a0a0a0" transform="rotate(132 106 176)" width="8" x="106" y="176"></rect>
  <rect height="8" style="fill: #a0a0a0" transform="rotate(269 206 136)" width="8" x="206" y="136"></rect>
  <rect height="8" style="fill: #a0a0a0" transform="rotate(268 316 406)" width="8" x="316" y="406"></rect>
  <rect height="8" style="fill: #a0a0a0" transform="rotate(351 106 326)" width="8" x="106" y="326"></rect>
  <rect height="8" style="fill: #a0a0a0" transform="rotate(158 306 276)" width="8" x="306" y="276"></rect>
  <rect height="8" style="fill: #a0a0a0" transform="rotate(1 176 216)" width="8" x="176" y="216"></rect>
  <rect height="8" style="fill: #a0a0a0" transform="rotate(302 276 316)" width="8" x="276" y="316"></rect>
  <rect height="8" style="fill: #a0a0a0" transform="rotate(269 256 426)" width="8" x="256" y="426"></rect>
  <rect height="8" style="fill: #a0a0a0" transform="rotate(150 256 206)" width="8" x="256" y="206"></rect>
  <polyline fill="none" points="250 250 250 250 250 250 250 250 250 250 250 250 250 250 250 250 250 250 250 250 250 250 250 250 250 250 250 250 250 250 250 250 250 250 250 250 250 250 249.99641632050455 249.99066419573504 249.9657184589597 249.9106935323151 249.9376501816303 249.83757316997932 249.91198623787014 249.77071631073295 249.8885206720432 249.70958642180037 249.80210455179977 249.48446473194096 249.6447940943764 249.07465697954524 249.3627709810308 248.3399616509776 249.06204528348573 247.5565444248306 248.64511991140657 246.5902485582958 248.14119141074096 245.61545871030785 247.64573195833995 244.75800235396278 247.12347388889822 243.8709295702045 246.4783646984075 242.88647054248005 245.8356547691335 242.0136510895514 245.20021842840626 241.1570493319505 244.61921367631004 240.37382423146218 244.0879778933958 239.65769033074133 243.60224786101605 239.00290058582402 243.15812554858192 238.4042002455422 242.75204683148982 237.85678468163653 242.38075288867634 237.35626083114883 242.04126405026287 236.89861194166605 241.73085588541647 236.48016533649275 241.43201787064453 236.0845067168245 241.10850279978283 235.67903639524872 240.81270008675216 235.30829873268462 240.54223588611 234.96931852345665 240.29493969643167 234.65937541853035 240.02465053549102 234.33758013029626 239.6166889225875 233.89515536706728 239.11465294846352 233.38686411137414 238.37560027660334 232.6717488469185 237.49584436460037 231.841204594758 236.5258234329439 230.91952035674788 235.55420220745935 229.94986237490667 234.57564465901132 228.97130482645863 233.5893690137765 227.98601568673612 232.71174276253083 227.10937594100278 231.85607511464852 226.25469479863278 230.87178003875312 225.27039972273738 229.98538944053624 224.38417672875988 229.1202790255132 223.5210295573802 228.1359839496178 222.53673448148479 227.15064082568531 221.5513913575523 226.17668852745408 220.57842556483337 225.31253967405095 219.71526321694256 224.32824459815555 218.73096814104716 223.3380387214839 217.74076226437552 222.4623633564356 216.8660734048395 221.59053400251682 215.99424405092074 220.6110909370084 215.01578749092465 219.78272118443078 214.18921307213623 218.9261194268299 213.33953975177087 218.08234618760335 212.5317987797601 217.29431183786872 211.7848220639259 216.5737806490374 211.10183150485875 215.91497028848198 210.47734603712374 215.31259373920432 209.90635410431457 214.68472985779147 209.34499564576632 213.78318285566698 208.64153989489836 212.81904223569038 207.87769390585265 211.9620116183684 207.13207077591474 211.07962898850508 206.3497281474779 210.20893159412554 205.55449111961775 209.34376381894864 204.69365158818616 208.35941079402605 203.7147256300921 207.48548762205812 202.8465485904066 206.62031984688122 201.9813808152297 205.6363386820324 201.00442215052024 204.76351922910374 200.14621856099265 203.90691747150285 199.30976761456242 203.04660535779448 198.5056894081569 202.2599877309549 197.770488682237 201.54075190828635 197.09826537971836 200.88312595260055 196.48362484344347 200.28183235186322 195.92163452353512 199.73204566664842 195.40778439320565 199.2293538055197 194.93795075535448 198.76972261756842 194.5083631494997 198.3494635179619 194.11557409346676 197.9652038866924 193.75643141701025 197.61386000297492 193.42805296534192 197.29261229808895 193.12780346955932 196.93944815162533 192.8862185220477 196.60030140584547 192.67432682596385 196.2902060299176 192.48058580980867 196.00667347839413 192.30344068314926 195.73002257693568 192.15111803062695 195.35121384747814 192.08160636844218 194.78840467207127 192.11102169232672 194.15352135655806 192.231599250252 193.25452296244904 192.4960402315036 192.2722157410674 192.94608557650233 191.302136585624 193.50082405243654 190.4369688104471 194.1171126257155 189.448771769 194.8713547973882 188.4710409358048 195.68951592148568 187.6058731606279 196.50066635525926 186.71863709952527 197.36009898358373 185.74366587952025 198.3313522822152 184.88706412191937 199.18795403981608 184.0281697428158 200.01312330635776 183.1999748504331 200.79137362907153 182.40992755623284 201.5211378578337 181.68755585211255 202.18839035449668 181.0270626351314 202.79848588501912 180.42314738320516 203.35632052516664 179.8709636179031 203.86637095199404 179.34618205190688 204.33307768978062 178.79974772557793 204.76096885217714 178.30012105968365 205.1522067823966 177.8432925018043 205.50993120274947 177.42559595848513 205.8370128863812 176.98437756563823 206.13711181242883 176.4572501485756 206.41366347079625 175.60858803811428 206.69876050329538 174.66107623513932 206.96158975238293 173.79590845996242 207.18127861529086 172.9096818135746 207.38534805006225 171.9339213754387 207.59514236253113 171.0687536002618 207.77095768315132 170.0844585243664 207.95421325169636 169.09708763010013 208.12586504471676 168.23191985492323 208.27149062285324 167.24953722505992 208.42420024873383 166.265021390133 208.56887179868838 165.30545913846294 208.70528030900178 164.43263968553427 208.82341347302167 163.45968793569935 208.94763738996477 162.59452016052245 209.05457824983506 161.60728409941981 209.16936146969428 160.63056268093945 209.27831837570787 159.6778998998895 209.38092304557364 158.6936048239941 209.48181290302836 157.70721422577722 209.5797387462907 156.74765197410716 209.67382897814775 155.76335689821175 209.76684311175111 154.8702193578327 209.84964935422332 154.01065710616263 209.92932579160305 153.02636203026722 210.01667326107287 152.0516678140486 210.10027764403094 151.10249481269102 210.17896932971837 150.25437426061094 210.2465235014975 149.47890386408784 210.3082909710487 148.7698603980276 210.36476742830192 148.12155371989164 210.4164061023005 147.52878110575122 210.46362139840835 146.98678549792382 210.50679222395297 146.49121732912414 210.54626502899382 146.03809961676495 210.5823565866171 145.62379604728642 210.6153565350709 145.24498179438748 210.64552970214007 144.8840621741975 210.686690673026 144.50533928939336 210.7697576456852 144.1590578734659 210.84570908686655 143.84243898448926 210.91515451424706 143.5529417251913 210.97865123411245 143.25942031081343 211.06358626827765 142.94203550530943 211.18694504100048 142.51777525736188 211.42475235178 141.88569059455634 211.8546276837435 141.17978479407597 212.38226011286366 140.2637833601966 213.10437675654893 139.29544528993358 213.9619313295604 138.45672252629248 214.7743337020691 137.47242745039708 215.7573380091869 136.59113279238576 216.63813911378264 135.7356987032895 217.49307964946334 134.7514036273941 218.47737472535874 133.7750203496493 219.45326444968796 132.92504250853474 220.30274873738696 131.94074743263934 221.28704381328237 130.95945277462803 222.2678449178781 130.10401868553177 223.1227854535588 129.11972360963637 224.1070805294542 128.14600487019115 225.08030571548386 127.2894031125903 225.93690747308474 126.30934425866195 226.91598410684946 125.33300226674955 227.89134387859826 124.46908697213252 228.7547656197998 123.48479189623716 229.7390606956952 122.50482213004327 230.71804824172546 121.65670157796322 231.56616879380553 120.88123118144009 232.34163919032864 120.1146129146463 233.1043720266543 119.34468937308105 233.8660882646668 118.64071761740814 234.56255575585183 117.9970482060563 235.19936371933076 117.40851562961224 235.78162260073262 116.87039685710693 236.3140050840158 116.37837343323423 236.80078359020933 115.92849682232851 237.2458645640061 115.51715672098337 237.65281982335998 115.1410520850166 238.02491522367106 114.79716463827093 238.36513686659197 114.48273465065519 238.67621506378288 114.19523879104285 238.96064624792734 113.93236987729522 239.2207130068463 113.69201836090106 239.45850240148692 113.47225539764544 239.67592271478873 113.27131736844785 239.8747187658393 113.08027818913202 240.06330589581708 112.84964263101992 240.2879229358792 112.63876335535222 240.49329924081096 112.44594803550238 240.68108297536523 112.2696493098401 240.85278112221272 112.08672826978538 241.03002962121542 111.72262325806476 241.3763081007898 111.10934037792981 241.9543098563151 110.33893631470171 242.67825114695015 109.37376853952487 243.63897039773158 108.48745281868463 244.52479256515625 107.6404159627773 245.371335867648 106.65320902034011 246.35854281008523 105.77072038767498 247.2410314427504 104.91411863007414 248.09763320035128 103.92807935614157 249.0831789208683 102.9677338867788 250.04303083681552 102.09491443385019 250.91585028974418 101.22018147497884 251.79008969519995 100.3720609228988 252.63821024728003 99.59659052637566 253.41368064380313 98.88754706031546 254.12272410986338 98.2392403821795 254.77103078799934 97.64646776803909 255.36380340213975 97.07543452897657 255.9328770391596 96.39253063230298 256.6031386003743 95.76812440344568 257.21598543845005 95.197204921898 257.7763357086623 94.67519050348457 258.2886862762409 94.19789193190171 258.75714880415006 93.7614788398507 259.18548274958147 93.36244896996877 259.57712553396317 92.99760006887445 259.93522012859955 92.66400418877376 260.2626402773206 92.35898419039532 260.56201355855484 92.08009225868834 260.8357424719007 91.82509025886945 261.0860237184187 91.59193177517419 261.31486582937043 91.37874568817224 261.52410528487684 91.18382115885248 261.71542125184857 91.00300502909772 261.919939977557 90.8327260766698 262.16353623024094 90.6770332492351 262.3862659851055 90.53467709676305 262.58991667002135 90.40451519733229 262.7761226014736 90.28040138761115 263.0046896717728 90.16448035611317 263.2415536300536 90.05848914054761 263.4581277800369 89.96157715113641 263.65615015026754 89.87296665977142 263.83720988945976 89.79194655867096 264.0027600195697 89.71786665367085 264.1541290964373 89.65013244635338 264.2925318715758 89.58820036313968 264.4190790406703 89.53157339305925 264.5347861570181 89.47979709918867 264.64058178144296 89.43245597175124 264.73731493408496 89.38917009361077 264.82576190786983 89.34959209139977 264.90663249833483 89.33403844572956 265.00194293369566 89.35928263385381 265.1299567879883 89.3823644003864 265.2470049530226 89.40346897874095 265.3540267516676 89.42276573520432 265.45188104423056 89.5517169910484 265.6641401874224 89.85881281516043 266.04660491590045 90.39671827039052 266.66878714609834 90.94728653614231 267.2922714807306 91.67573406092636 268.09538484965316 92.45636798580895 268.9483599825382 93.25648023735685 269.8176846376071 94.027520238582 270.6534105175068 94.73251281778413 271.417547971647 95.37711560874224 272.11622927716087 95.96650161133144 272.75506141924393 96.50540070534832 273.3391710877551 96.99813760825475 273.8732458193984 97.44866658145475 274.36157161566 97.94554314573845 274.8981307875468 98.67344306393302 275.6718352661633 99.28096309578679 276.3172683816225 99.83644285493419 276.9074135829699 100.34434012028184 277.4470068426461 100.80873081661174 277.9403784488594 101.23334172427269 278.3914877565696 101.62158038695375 278.8039549616942 101.97656245755267 279.1810901535325 102.30113670159243 279.5259198785527 102.62740862396053 279.8803602663066 102.94829836745787 280.2343857613033 103.28821007482325 280.61980547597136 103.6224388300759 281.0033079648159 103.9622283041605 281.3993323040699 104.30813818074172 281.8081807092515 104.64125762439456 282.204354878493 104.99790909441982 282.63568806950616 105.32400973683762 283.030073183566 105.62217654091046 283.3906751994384 105.89480232414058 283.7203879832517 106.15605164967968 284.0377511494313 106.59807421261924 284.5946867794569 107.14368205193165 285.2918927781215 107.70251217738655 286.01150989591054 108.43077706467157 286.93769223672894 109.2106110039706 287.8912547624697 110.00336674305981 288.76210382033906 110.91624632661936 289.73553920223543 111.8426508594003 290.69361650447536 112.82694593529565 291.6779115803708 113.80694520652227 292.65954437911785 114.65506575860232 293.50766493119795 115.43053615512545 294.28313532772114 116.13957962118566 294.99217879378136 116.78788629932161 295.64048547191743 117.53140495607771 296.412816692984 118.21668892079404 297.14671739120433 118.89533843711202 297.88684739736516 119.51585471658271 298.563577737113 120.1352845589568 299.25143460775627 120.70165393216207 299.88036953796245 121.22552615554498 300.46341614660594 121.7505723384304 301.05762789591677 122.24851925672158 301.6246619920752 122.7380027672237 302.18849658890286 123.21505779930455 302.743181852653 123.67381454483497 303.28029921237294 124.13978354260779 303.833127110452 124.57741336513334 304.3539612936609 125.02360468637683 304.89128974483435 125.44945146433386 305.4063131761717 125.87301094519518 305.92259235086834 126.28978901160106 306.4337957983054 126.69343212693053 306.93115600174013 127.06249910205652 307.38591224273256 127.39995173522597 307.8017139841936 127.70849811652742 308.18189807539966 127.99061436057644 308.52951553053185 128.24856447757546 308.8473560133602 128.48441854221497 309.1379702245657 128.70006930622378 309.403690371361 128.89724738788482 309.64664888367884 129.10445608214297 309.8813489590956 129.34540515067732 310.11995472296064 129.56571447965177 310.3381214751556 129.76715207278468 310.53760002501264 129.9513344862851 310.71999120722853 130.12880287974352 310.8909849113361 130.59443014024296 311.19731732446456 131.16496114204534 311.5441181025651 131.85669361838265 311.9327993303596 132.75023203478966 312.42441774293695 133.59967768371104 312.89235715116195 134.58592364580377 313.49036354229173 135.5579343717396 314.13387206451654 136.39765769063075 314.7394773542661 137.1654501624358 315.29320638845445 137.86747339615883 315.7995028962508 138.50936119629344 316.26242995620254 139.28339251051372 316.78877142784955 140.11763574714504 317.3132118520143 140.88041756149983 317.7927286172696 141.57785935157042 318.2311698921331 142.21555815532113 318.6320542103313 142.79863156746055 318.9985987073733 143.33175880863507 319.3337449383747 143.8192182766281 319.64018248432325 144.26492188091694 319.9203705362262 144.6724464361255 320.17655763035737 145.04506236630831 320.4107996929777 145.3857599504207 320.62497653934366 145.69727331959697 320.8208069594061 145.98210239881797 320.9998625112669 146.24253296905135 321.16358013308445 146.4806550108652 321.3132736746421 146.69837947672497 321.45014444111973 146.8974536265719 321.5752908336844 147.07947504975363 321.6897171642663 147.2459044858335 321.79434171525907 147.40574591075446 321.9384202510392 147.55776113334363 322.10719246432694 147.69675470524757 322.26150762016107 147.8238420633527 322.40260411262403 147.94004309602573 322.5316142547435 148.05401973159306 322.6983749002165 148.19110632217246 323.0584041019462 148.3302535567748 323.4747450425231 148.4842805267622 324.0246250786684 148.6480139712843 324.67199005686035 148.81542414573917 325.37566871190984 149.03502784576318 326.2953212799029 149.2504915785565 327.13504459879414 149.47928747483223 328.0218634461737 149.72966290486826 328.97440463367815 150.0175176592838 329.94623398759694 150.3162023015612 330.918578257904 150.6113992866033 331.77518001550493 150.94031467433467 332.7470713103722 151.2361869070629 333.5951918624523 151.5659591117394 334.48879963833366 151.8910081114945 335.3300857483646 152.2001832179576 336.17488187135984 152.48598753120032 336.96696858586495 152.82261670705373 337.9512636617604 153.15141107894098 338.91934330347914 153.4338250805319 339.75075253010414 153.71933729991926 340.59128271690633 153.9531026416024 341.27947331951685 154.1668436030304 341.9087133941514 154.36227547613532 342.48405265339744 154.54096662064097 343.0101082505747 154.7043510503015 343.49110183283824 154.85373994100084 343.9308934203056 155.02375360308608 344.3538964229063 155.21915280343518 344.7656277812296 155.39781407393895 345.142090159033 155.56117118860982 345.4863047033867 155.82612541719635 345.87326261338694 156.17290447230218 346.29238551804764 156.48997837259776 346.6756062810301 156.77989166686504 347.02600028610055 157.04497093739022 347.3463794791114 157.28734347101187 347.63931493413907 157.50895433080407 347.90715748660267 157.7115819653961 348.1520565989463 157.89685248119514 348.3759776102829 158.08415550390234 348.6023551431037 158.2375113049094 348.7877035020034 158.37773062104833 348.9571748879028 158.50593872592185 349.1121293250998 158.62316450199808 349.25381033797174 158.73034869749196 349.38335493037926 158.82835147596117 349.50180271023237 158.91795931920169 349.6101042324448 158.99989133884077 349.70912862722946 159.07480504727724 349.79967057495236 159.14330163428212 349.8824566835196 159.22693465649763 349.93714745458414 159.34357639450758 349.94698066941015 159.45022658073862 349.95597156932575 159.5477410932723 349.9641923071744 159.63690249552317 349.9717088551741 159.7184263163862 349.978581534351 159.7929667924255 349.98486549862156 159.861122118186 349.9906111774083 159.92343924676288 349.9958646803404 159.98041827915296 350.00066816728787 160.0325164776139 350.0050601866991 160.0801519352379 350.0090759849557 160.12370693118942 350.01274778922783 160.16353099853248 350.0161050661007 160.19994372926746 350.01917475804646 160.2332373390878 350.0219814996407 160.2636790124392 350.0245478152566 160.29151304670089 350.02689429982587 160.3169628126956 350.02903978411445 160.34023254726216 350.03100148584184 160.36150899227587 350.03279514785436 160.3809628932702 350.0344351644637 160.39875036968613 350.03593469696204 160.41501416774594 350.03730577924307 160.45904301136332 350.04422719534625 160.55506935177561 350.0613961201596 160.64287005899064 350.07709435185575 160.72314974219375 350.09144787026565 160.7965526536237 350.10457186376584 160.86366785875927 350.11657165367615 161.21835133334946 350.18445757665074 161.67397129262264 350.2721552393613 162.25135204502953 350.38359497461386 162.80787477590994 350.491048139545 163.46704476026125 350.6185159183573 164.09890833325517 350.7407325658041 164.73241537680775 350.8633205121797 165.3597751220433 350.98476094474574 165.97020331549388 351.1029535566922 166.5858009948142 351.22219064206854 167.17613481715244 351.33655316381305 167.78260678483136 351.45408575223667 168.35534923348172 351.5650922774875 168.96395768395112 351.6830981436763 169.53024889941867 351.7929036965805 170.12314245863908 351.90790337597105 170.68478400422836 352.01684945054046 171.26370710408526 352.1291740766874 171.7930395494568 352.23187695561637 172.27702928452229 352.3257822878853 172.71956037381602 352.4116436728873 173.12418417222153 352.4901501565589 173.49414782493895 352.56193176104097 173.8324203261397 352.6275645406667 174.1417163454328 352.68757520485417 174.42451801335136 352.7424453449998 174.75659433835352 352.81649673375045 175.06900779435455 352.8870585876231 175.43694220383173 352.97831125524255 175.78286985228786 353.06483737325897 176.22760649666955 353.1856847306896 176.66085982772515 353.30482733951055 177.05700060229387 353.41376417151935 177.4192078884873 353.51336945535155 177.75038843488383 353.604442533064 178.1282579917512 353.7121020956351 178.64554821676063 353.86635716410626 179.18370727456815 354.02857698352756 179.7751522185597 354.2091930665812 180.38056270652135 354.3953367213705 180.9517671488794 354.57127125537033 181.60321105520134 354.77410473800285 182.2342479151728 354.97106424622865 182.8935123918351 355.1778873229137 183.4963041575541 355.36699389849866 184.12974301970195 355.56663672613314 184.70892139758496 355.74917811406317 185.2384872538221 355.91608297461966 185.72269040573738 356.06869073548575 186.165416630556 356.2082260887337 186.5702188491431 356.3358088190977 186.94034563853788 356.4524627903548 187.27876730209965 356.5591241619308 187.58819970647966 356.6566489016708 187.8711260767146 356.7458196550637 188.12981692434803 356.8273520260484 188.36634826850573 356.90190031980427 188.5826182961501 356.97006279361455 188.81967644686821 357.03513555024927 189.08342033007307 357.0979201761215 189.32457186588692 357.15532665990634 189.54506631875813 357.2078156942004 189.83297920503819 357.26184361391074 190.10620506337855 357.31194105726024 190.43235673316462 357.3630846853892 190.7602017868547 357.4119193841932 191.20294403635324 357.46656906190356 191.60776090694333 357.51653743861596 191.97790109324802 357.5622255153968 192.31633500613802 357.6039999434903 192.62577861056664 357.64219596673115 192.9967385404646 357.6832753019831 193.50681673954293 357.73278590003997 194.09986666739374 357.7869126993786 194.7743687982214 357.8456510157173 195.68029860838618 357.92748864116396 196.52002192727733 358.0103958295378 197.3958152063956 358.09772059722746 198.2439357584757 358.18415100228293 199.2263872139801 358.2979475744841 200.057796440605 358.4034371333918 200.9284577939635 358.5113164594497 201.747278231259 358.6119872357015 202.72682587871694 358.74173962288063 203.67062787903726 358.8699621326724 204.53579565421416 358.9988740878205 205.39545688339697 359.12221479235194 206.24357743547705 359.2415889509747 207.19698948231468 359.37451557198904 208.0201669344185 359.49038291744165 208.8591368882894 359.60236015103726 209.63621616895688 359.7054429598594 210.42306108835623 359.8050332177419 211.1524803741665 359.8967901213676 211.96353709259907 359.99076493784617 212.75326693988336 360.08005671843443 213.53202282337992 360.16566281187323 214.2833841926754 360.2466849646132 215.01737599036022 360.3240527585171 215.73739416774896 360.39821265190994 216.43314124240806 360.4686356628068 217.13804325875472 360.53783388741897 217.88642254009198 360.6083671293809 218.61000937230816 360.6756075737508 219.3186058046415 360.74037420284577 219.96650374203819 360.79959291110913 220.55890262824292 360.8537389344143 221.1683457520895 360.9079870846092 221.74410066747333 360.95888314928044 222.34763000596897 361.01081036409397 222.90867325189038 361.05893367389154 223.5283827183778 361.110397691351 224.160894533417 361.162060543831 224.8163189655679 361.21468886327483 225.42481196230094 361.2634532209568 226.06748736898106 361.3140755205084 226.66508672787086 361.3610590697205 227.28782600713743 361.409355540431 227.86719697079192 361.4542124917093 228.4732693023628 361.50056452923894 229.02742537148805 361.5429460430869 229.53411233433349 361.58169714900976 229.9973964028862 361.61712882838845 230.4209954766999 361.649525423884 230.8083089793989 361.6791469213153 231.16244513938244 361.70623103607033 231.48624593365878 361.7309951207953 231.78230989498613 361.75363790967015 232.05301296534998 361.7743411132703 232.3795645722388 361.75808133315394 232.67814371108685 361.7432143686602 232.95114650842282 361.72962091095803 233.200763838156 361.71719187123176 233.4289989035515 361.705827505233 233.65586377223815 361.6873421509163 233.92415190640295 361.6433451735488 234.1965943409792 361.5910352998453 234.4976004086979 361.52009844061024 234.78195769832743 361.4511706787744 235.1824590171634 361.3255917049069 235.55708976166687 361.20701370335405 235.97866657986216 361.0634035705983 236.37326650829093 360.9280277406245 236.80396649203024 360.7731260508134 237.21595309857014 360.6233988050704 237.65350540998668 360.4594021397632 238.07175737261053 360.3013589957236 238.56851210381078 360.10595072370205 239.0482779913348 359.915899664677 239.56598405772098 359.7069388691142 240.03934333146847 359.51587769202627 240.4721545666291 359.34118284894856 240.86789111531493 359.1814523968333 241.22972880168567 359.0354044833205 241.56057140824524 358.90186705974855 241.86307397897798 358.7797684753504 242.1396641263339 358.66812887715184 242.39256151305375 358.5660523465568 242.62379566517794 358.4727197095134 242.9014658156291 358.34757881823435 243.1632664883999 358.2284012274859 243.46088987179402 358.084433118892 243.7489295342396 357.94323720045963 244.0624693671268 357.7839887496455 244.37313697691877 357.6239695141487 244.7073664432056 357.4475101549184 245.0369514087638 357.2717543004454 245.40578336919543 357.07050806881637 245.8238605234201 356.83792741022046 246.23990595165455 356.60497207737444 246.66069137151058 356.36770987908795 247.04543223834443 356.15077160240793 247.39721613490326 355.9524162966374 247.76088420685423 355.74580515221174 248.12554171469287 355.5375799092019 248.5009806421188 355.32194428809555 248.87640071188352 355.1054676066635 249.22823390549536 354.9023839750618 249.61551668554745 354.6772874692461 249.96962475459142 354.47147276968144 250.29339986420302 354.2832881934555 250.58944034101853 354.11122354110455 250.860121938558 353.953897977116 251.10761690287717 353.81004894859035 251.333911405053 353.6785220531311 251.5408214803989 353.55826177465394 251.73000760232415 353.4483030127681 251.9029880077939 353.34776333775187 252.06115088132808 353.25583590896844 252.2057654953166 353.1717829998916 252.3379923960534 353.09493007777957 252.45889271723289 353.02466039048323 252.56943669565067 352.9604100169514 252.67051145744793 352.901663341709 252.7629281373848 352.8479489169931 252.84742838827506 352.7988356793393 252.92469033282228 352.7539294902551 252.99533400562004 352.71286997322045 253.05992632898966 352.6753276216316 253.11898566258665 352.64100115447843 253.17298596328746 352.6096150985347 253.22236058873912 352.58091757765953 253.26750577509654 352.55467829146653 253.30878381685582 352.5306866671405 253.34652597430298 352.50875016957116 253.38103513190964 352.48869275623906 253.4125882290104 352.4703534644583 253.44143848226767 352.4535851196347 253.46781741776022 352.4382531541759 253.49193672900213 352.4242345275731 253.51398997580387 352.4114167389891 253.53415413760845 352.39969692442793 253.55259103376886 352.38898103124205 253.56944862216366 352.37918306334984 253.58486218657367 352.3702243911094 253.59895542234722 352.3620331203076 253.6118414290674 352.35454351520247 253.62362361818708 352.34769547098693 253.63439654291594 352.3414340314425 253.64424665701904 352.33570894790984 253.65325300861684 352.330474276039" stroke="#5050d0" stroke-dasharray="5 10"></polyline>
</svg>
