<svg viewBox="0 0 904 576" width="904" height="576" xmlns="http://www.w3.org/2000/svg" xmlns:xlink="http://www.w3.org/1999/xlink">
    <style>
        rect { shape-rendering: crispEdges; }
        text {
            dominant-baseline: text-before-edge;
            white-space: pre;
            font: 14px monospace;
            fill: #bbbbbb;
        }
        .u { text-decoration: underline; }
    </style>
    <rect width="100%" height="100%" x="0" y="0" style="fill: #000000"/>
    <text x="0" y="0" style="fill: #ffffff">#</text>
    <text x="16" y="0" style="fill: #ffffff">d</text>
    <text x="24" y="0" style="fill: #ffffff">i</text>
    <text x="32" y="0" style="fill: #ffffff">s</text>
    <text x="40" y="0" style="fill: #ffffff">p</text>
    <text x="48" y="0" style="fill: #ffffff">l</text>
    <text x="56" y="0" style="fill: #ffffff">a</text>
    <text x="64" y="0" style="fill: #ffffff">y</text>
    <text x="80" y="0" style="fill: #ffffff">a</text>
    <text x="96" y="0" style="fill: #ffffff">d</text>
    <text x="104" y="0" style="fill: #ffffff">e</text>
    <text x="112" y="0" style="fill: #ffffff">c</text>
    <text x="120" y="0" style="fill: #ffffff">o</text>
    <text x="128" y="0" style="fill: #ffffff">d</text>
    <text x="136" y="0" style="fill: #ffffff">e</text>
    <text x="152" y="0" style="fill: #ffffff">v</text>
    <text x="160" y="0" style="fill: #ffffff">a</text>
    <text x="168" y="0" style="fill: #ffffff">l</text>
    <text x="176" y="0" style="fill: #ffffff">u</text>
    <text x="184" y="0" style="fill: #ffffff">e</text>
    <text x="0" y="16">$</text>
    <text x="16" y="16">f</text>
    <text x="24" y="16">q</text>
    <text x="40" y="16">.</text>
    <text x="56" y="16">f</text>
    <text x="64" y="16">i</text>
    <text x="72" y="16">l</text>
    <text x="80" y="16">e</text>
    <text x="88" y="16">.</text>
    <text x="96" y="16">m</text>
    <text x="104" y="16">p</text>
    <text x="112" y="16">3</text>
    <text x="40" y="32">│</text>
    <text x="48" y="32" style="fill: #bbbb00" class="u">0</text>
    <text x="56" y="32" style="fill: #bbbb00" class="u">0</text>
    <text x="64" y="32" style="fill: #bbbb00" class="u"> </text>
    <text x="72" y="32" style="fill: #bbbb00" class="u">0</text>
    <text x="80" y="32" style="fill: #bbbb00" class="u">1</text>
    <text x="88" y="32" style="fill: #bbbb00" class="u"> </text>
    <text x="96" y="32" style="fill: #bbbb00" class="u">0</text>
    <text x="104" y="32" style="fill: #bbbb00" class="u">2</text>
    <text x="112" y="32" style="fill: #bbbb00" class="u"> </text>
    <text x="120" y="32" style="fill: #bbbb00" class="u">0</text>
    <text x="128" y="32" style="fill: #bbbb00" class="u">3</text>
    <text x="136" y="32" style="fill: #bbbb00" class="u"> </text>
    <text x="144" y="32" style="fill: #bbbb00" class="u">0</text>
    <text x="152" y="32" style="fill: #bbbb00" class="u">4</text>
    <text x="160" y="32" style="fill: #bbbb00" class="u"> </text>
    <text x="168" y="32" style="fill: #bbbb00" class="u">0</text>
    <text x="176" y="32" style="fill: #bbbb00" class="u">5</text>
    <text x="184" y="32" style="fill: #bbbb00" class="u"> </text>
    <text x="192" y="32" style="fill: #bbbb00" class="u">0</text>
    <text x="200" y="32" style="fill: #bbbb00" class="u">6</text>
    <text x="208" y="32" style="fill: #bbbb00" class="u"> </text>
    <text x="216" y="32" style="fill: #bbbb00" class="u">0</text>
    <text x="224" y="32" style="fill: #bbbb00" class="u">7</text>
    <text x="232" y="32" style="fill: #bbbb00" class="u"> </text>
    <text x="240" y="32" style="fill: #bbbb00" class="u">0</text>
    <text x="248" y="32" style="fill: #bbbb00" class="u">8</text>
    <text x="256" y="32" style="fill: #bbbb00" class="u"> </text>
    <text x="264" y="32" style="fill: #bbbb00" class="u">0</text>
    <text x="272" y="32" style="fill: #bbbb00" class="u">9</text>
    <text x="280" y="32" style="fill: #bbbb00" class="u"> </text>
    <text x="288" y="32" style="fill: #bbbb00" class="u">0</text>
    <text x="296" y="32" style="fill: #bbbb00" class="u">a</text>
    <text x="304" y="32" style="fill: #bbbb00" class="u"> </text>
    <text x="312" y="32" style="fill: #bbbb00" class="u">0</text>
    <text x="320" y="32" style="fill: #bbbb00" class="u">b</text>
    <text x="328" y="32" style="fill: #bbbb00" class="u"> </text>
    <text x="336" y="32" style="fill: #bbbb00" class="u">0</text>
    <text x="344" y="32" style="fill: #bbbb00" class="u">c</text>
    <text x="352" y="32" style="fill: #bbbb00" class="u"> </text>
    <text x="360" y="32" style="fill: #bbbb00" class="u">0</text>
    <text x="368" y="32" style="fill: #bbbb00" class="u">d</text>
    <text x="376" y="32" style="fill: #bbbb00" class="u"> </text>
    <text x="384" y="32" style="fill: #bbbb00" class="u">0</text>
    <text x="392" y="32" style="fill: #bbbb00" class="u">e</text>
    <text x="400" y="32" style="fill: #bbbb00" class="u"> </text>
    <text x="408" y="32" style="fill: #bbbb00" class="u">0</text>
    <text x="416" y="32" style="fill: #bbbb00" class="u">f</text>
    <text x="424" y="32">│</text>
    <text x="432" y="32" style="fill: #bbbb00" class="u">0</text>
    <text x="440" y="32" style="fill: #bbbb00" class="u">1</text>
    <text x="448" y="32" style="fill: #bbbb00" class="u">2</text>
    <text x="456" y="32" style="fill: #bbbb00" class="u">3</text>
    <text x="464" y="32" style="fill: #bbbb00" class="u">4</text>
    <text x="472" y="32" style="fill: #bbbb00" class="u">5</text>
    <text x="480" y="32" style="fill: #bbbb00" class="u">6</text>
    <text x="488" y="32" style="fill: #bbbb00" class="u">7</text>
    <text x="496" y="32" style="fill: #bbbb00" class="u">8</text>
    <text x="504" y="32" style="fill: #bbbb00" class="u">9</text>
    <text x="512" y="32" style="fill: #bbbb00" class="u">a</text>
    <text x="520" y="32" style="fill: #bbbb00" class="u">b</text>
    <text x="528" y="32" style="fill: #bbbb00" class="u">c</text>
    <text x="536" y="32" style="fill: #bbbb00" class="u">d</text>
    <text x="544" y="32" style="fill: #bbbb00" class="u">e</text>
    <text x="552" y="32" style="fill: #bbbb00" class="u">f</text>
    <text x="560" y="32">│</text>
    <text x="568" y="32">.</text>
    <text x="576" y="32">{</text>
    <text x="584" y="32">}</text>
    <text x="592" y="32">:</text>
    <text x="608" y="32">f</text>
    <text x="616" y="32">i</text>
    <text x="624" y="32">l</text>
    <text x="632" y="32">e</text>
    <text x="640" y="32">.</text>
    <text x="648" y="32">m</text>
    <text x="656" y="32">p</text>
    <text x="664" y="32">3</text>
    <text x="680" y="32">(</text>
    <text x="688" y="32">m</text>
    <text x="696" y="32">p</text>
    <text x="704" y="32">3</text>
    <text x="712" y="32">)</text>
    <text x="0" y="48" style="fill: #bbbb00">0</text>
    <text x="8" y="48" style="fill: #bbbb00">x</text>
    <text x="16" y="48" style="fill: #bbbb00">0</text>
    <text x="24" y="48" style="fill: #bbbb00">0</text>
    <text x="32" y="48" style="fill: #bbbb00">0</text>
    <text x="40" y="48">│</text>
    <text x="48" y="48">4</text>
    <text x="56" y="48">9</text>
    <text x="72" y="48">4</text>
    <text x="80" y="48">4</text>
    <text x="96" y="48">3</text>
    <text x="104" y="48">3</text>
    <text x="120" y="48" style="fill: #ffffff">0</text>
    <text x="128" y="48" style="fill: #ffffff">4</text>
    <text x="144" y="48" style="fill: #555555">0</text>
    <text x="152" y="48" style="fill: #555555">0</text>
    <text x="168" y="48" style="fill: #555555">0</text>
    <text x="176" y="48" style="fill: #555555">0</text>
    <text x="192" y="48" style="fill: #555555">0</text>
    <text x="200" y="48" style="fill: #555555">0</text>
    <text x="216" y="48" style="fill: #555555">0</text>
    <text x="224" y="48" style="fill: #555555">0</text>
    <text x="240" y="48" style="fill: #ffffff">1</text>
    <text x="248" y="48" style="fill: #ffffff">5</text>
    <text x="264" y="48">3</text>
    <text x="272" y="48">9</text>
    <text x="288" y="48">5</text>
    <text x="296" y="48">4</text>
    <text x="312" y="48">5</text>
    <text x="320" y="48">3</text>
    <text x="336" y="48">5</text>
    <text x="344" y="48">3</text>
    <text x="360" y="48">4</text>
    <text x="368" y="48">5</text>
    <text x="384" y="48" style="fill: #555555">0</text>
    <text x="392" y="48" style="fill: #555555">0</text>
    <text x="408" y="48" style="fill: #555555">0</text>
    <text x="416" y="48" style="fill: #555555">0</text>
    <text x="424" y="48">│</text>
    <text x="432" y="48">I</text>
    <text x="440" y="48">D</text>
    <text x="448" y="48">3</text>
    <text x="456" y="48" style="fill: #ffffff">.</text>
    <text x="464" y="48" style="fill: #555555">.</text>
    <text x="472" y="48" style="fill: #555555">.</text>
    <text x="480" y="48" style="fill: #555555">.</text>
    <text x="488" y="48" style="fill: #555555">.</text>
    <text x="496" y="48" style="fill: #ffffff">.</text>
    <text x="504" y="48">9</text>
    <text x="512" y="48">T</text>
    <text x="520" y="48">S</text>
    <text x="528" y="48">S</text>
    <text x="536" y="48">E</text>
    <text x="544" y="48" style="fill: #555555">.</text>
    <text x="552" y="48" style="fill: #555555">.</text>
    <text x="560" y="48">│</text>
    <text x="584" y="48" style="fill: #5555ff">h</text>
    <text x="592" y="48" style="fill: #5555ff">e</text>
    <text x="600" y="48" style="fill: #5555ff">a</text>
    <text x="608" y="48" style="fill: #5555ff">d</text>
    <text x="616" y="48" style="fill: #5555ff">e</text>
    <text x="624" y="48" style="fill: #5555ff">r</text>
    <text x="632" y="48" style="fill: #5555ff">s</text>
    <text x="640" y="48">[</text>
    <text x="648" y="48" style="fill: #00bbbb">0</text>
    <text x="656" y="48">:</text>
    <text x="664" y="48" style="fill: #00bbbb">1</text>
    <text x="672" y="48">]</text>
    <text x="680" y="48">:</text>
    <text x="0" y="64" style="fill: #bbbb00">*</text>
    <text x="40" y="64">│</text>
    <text x="48" y="64">u</text>
    <text x="56" y="64">n</text>
    <text x="64" y="64">t</text>
    <text x="72" y="64">i</text>
    <text x="80" y="64">l</text>
    <text x="96" y="64">0</text>
    <text x="104" y="64">x</text>
    <text x="112" y="64">a</text>
    <text x="120" y="64">c</text>
    <text x="128" y="64">2</text>
    <text x="136" y="64">.</text>
    <text x="144" y="64">7</text>
    <text x="160" y="64">(</text>
    <text x="168" y="64">2</text>
    <text x="176" y="64">7</text>
    <text x="184" y="64">5</text>
    <text x="192" y="64">5</text>
    <text x="200" y="64">)</text>
    <text x="424" y="64">│</text>
    <text x="560" y="64">│</text>
    <text x="0" y="80" style="fill: #bbbb00">0</text>
    <text x="8" y="80" style="fill: #bbbb00">x</text>
    <text x="16" y="80" style="fill: #bbbb00">a</text>
    <text x="24" y="80" style="fill: #bbbb00">c</text>
    <text x="32" y="80" style="fill: #bbbb00">0</text>
    <text x="40" y="80">│</text>
    <text x="120" y="80" style="fill: #ffffff">f</text>
    <text x="128" y="80" style="fill: #ffffff">f</text>
    <text x="144" y="80" style="fill: #ffffff">f</text>
    <text x="152" y="80" style="fill: #ffffff">b</text>
    <text x="168" y="80">4</text>
    <text x="176" y="80">0</text>
    <text x="192" y="80" style="fill: #ffffff">c</text>
    <text x="200" y="80" style="fill: #ffffff">0</text>
    <text x="216" y="80" style="fill: #555555">0</text>
    <text x="224" y="80" style="fill: #555555">0</text>
    <text x="240" y="80" style="fill: #555555">0</text>
    <text x="248" y="80" style="fill: #555555">0</text>
    <text x="264" y="80" style="fill: #555555">0</text>
    <text x="272" y="80" style="fill: #555555">0</text>
    <text x="288" y="80" style="fill: #555555">0</text>
    <text x="296" y="80" style="fill: #555555">0</text>
    <text x="312" y="80" style="fill: #555555">0</text>
    <text x="320" y="80" style="fill: #555555">0</text>
    <text x="336" y="80" style="fill: #555555">0</text>
    <text x="344" y="80" style="fill: #555555">0</text>
    <text x="360" y="80" style="fill: #555555">0</text>
    <text x="368" y="80" style="fill: #555555">0</text>
    <text x="384" y="80" style="fill: #555555">0</text>
    <text x="392" y="80" style="fill: #555555">0</text>
    <text x="408" y="80" style="fill: #555555">0</text>
    <text x="416" y="80" style="fill: #555555">0</text>
    <text x="424" y="80">│</text>
    <text x="456" y="80" style="fill: #ffffff">.</text>
    <text x="464" y="80" style="fill: #ffffff">.</text>
    <text x="472" y="80">@</text>
    <text x="480" y="80" style="fill: #ffffff">.</text>
    <text x="488" y="80" style="fill: #555555">.</text>
    <text x="496" y="80" style="fill: #555555">.</text>
    <text x="504" y="80" style="fill: #555555">.</text>
    <text x="512" y="80" style="fill: #555555">.</text>
    <text x="520" y="80" style="fill: #555555">.</text>
    <text x="528" y="80" style="fill: #555555">.</text>
    <text x="536" y="80" style="fill: #555555">.</text>
    <text x="544" y="80" style="fill: #555555">.</text>
    <text x="552" y="80" style="fill: #555555">.</text>
    <text x="560" y="80">│</text>
    <text x="584" y="80" style="fill: #5555ff">f</text>
    <text x="592" y="80" style="fill: #5555ff">r</text>
    <text x="600" y="80" style="fill: #5555ff">a</text>
    <text x="608" y="80" style="fill: #5555ff">m</text>
    <text x="616" y="80" style="fill: #5555ff">e</text>
    <text x="624" y="80" style="fill: #5555ff">s</text>
    <text x="632" y="80">[</text>
    <text x="640" y="80" style="fill: #00bbbb">0</text>
    <text x="648" y="80">:</text>
    <text x="656" y="80" style="fill: #00bbbb">3</text>
    <text x="664" y="80">]</text>
    <text x="672" y="80">:</text>
    <text x="0" y="96" style="fill: #bbbb00">0</text>
    <text x="8" y="96" style="fill: #bbbb00">x</text>
    <text x="16" y="96" style="fill: #bbbb00">a</text>
    <text x="24" y="96" style="fill: #bbbb00">d</text>
    <text x="32" y="96" style="fill: #bbbb00">0</text>
    <text x="40" y="96">│</text>
    <text x="48" y="96" style="fill: #555555">0</text>
    <text x="56" y="96" style="fill: #555555">0</text>
    <text x="72" y="96" style="fill: #555555">0</text>
    <text x="80" y="96" style="fill: #555555">0</text>
    <text x="96" y="96" style="fill: #555555">0</text>
    <text x="104" y="96" style="fill: #555555">0</text>
    <text x="120" y="96" style="fill: #555555">0</text>
    <text x="128" y="96" style="fill: #555555">0</text>
    <text x="144" y="96" style="fill: #555555">0</text>
    <text x="152" y="96" style="fill: #555555">0</text>
    <text x="168" y="96" style="fill: #555555">0</text>
    <text x="176" y="96" style="fill: #555555">0</text>
    <text x="192" y="96" style="fill: #555555">0</text>
    <text x="200" y="96" style="fill: #555555">0</text>
    <text x="216" y="96" style="fill: #555555">0</text>
    <text x="224" y="96" style="fill: #555555">0</text>
    <text x="240" y="96">4</text>
    <text x="248" y="96">9</text>
    <text x="264" y="96">6</text>
    <text x="272" y="96">e</text>
    <text x="288" y="96">6</text>
    <text x="296" y="96">6</text>
    <text x="312" y="96">6</text>
    <text x="320" y="96">f</text>
    <text x="336" y="96" style="fill: #555555">0</text>
    <text x="344" y="96" style="fill: #555555">0</text>
    <text x="360" y="96" style="fill: #555555">0</text>
    <text x="368" y="96" style="fill: #555555">0</text>
    <text x="384" y="96" style="fill: #555555">0</text>
    <text x="392" y="96" style="fill: #555555">0</text>
    <text x="408" y="96" style="fill: #ffffff">0</text>
    <text x="416" y="96" style="fill: #ffffff">f</text>
    <text x="424" y="96">│</text>
    <text x="432" y="96" style="fill: #555555">.</text>
    <text x="440" y="96" style="fill: #555555">.</text>
    <text x="448" y="96" style="fill: #555555">.</text>
    <text x="456" y="96" style="fill: #555555">.</text>
    <text x="464" y="96" style="fill: #555555">.</text>
    <text x="472" y="96" style="fill: #555555">.</text>
    <text x="480" y="96" style="fill: #555555">.</text>
    <text x="488" y="96" style="fill: #555555">.</text>
    <text x="496" y="96">I</text>
    <text x="504" y="96">n</text>
    <text x="512" y="96">f</text>
    <text x="520" y="96">o</text>
    <text x="528" y="96" style="fill: #555555">.</text>
    <text x="536" y="96" style="fill: #555555">.</text>
    <text x="544" y="96" style="fill: #555555">.</text>
    <text x="552" y="96" style="fill: #ffffff">.</text>
    <text x="560" y="96">│</text>
    <text x="0" y="112" style="fill: #bbbb00">*</text>
    <text x="40" y="112">│</text>
    <text x="48" y="112">u</text>
    <text x="56" y="112">n</text>
    <text x="64" y="112">t</text>
    <text x="72" y="112">i</text>
    <text x="80" y="112">l</text>
    <text x="96" y="112">0</text>
    <text x="104" y="112">x</text>
    <text x="112" y="112">d</text>
    <text x="120" y="112">1</text>
    <text x="128" y="112">9</text>
    <text x="136" y="112">.</text>
    <text x="144" y="112">7</text>
    <text x="160" y="112">(</text>
    <text x="168" y="112">e</text>
    <text x="176" y="112">n</text>
    <text x="184" y="112">d</text>
    <text x="192" y="112">)</text>
    <text x="208" y="112">(</text>
    <text x="216" y="112">5</text>
    <text x="224" y="112">9</text>
    <text x="232" y="112">9</text>
    <text x="240" y="112">)</text>
    <text x="424" y="112">│</text>
    <text x="560" y="112">│</text>
    <text x="40" y="128">│</text>
    <text x="424" y="128">│</text>
    <text x="560" y="128">│</text>
    <text x="584" y="128" style="fill: #5555ff">f</text>
    <text x="592" y="128" style="fill: #5555ff">o</text>
    <text x="600" y="128" style="fill: #5555ff">o</text>
    <text x="608" y="128" style="fill: #5555ff">t</text>
    <text x="616" y="128" style="fill: #5555ff">e</text>
    <text x="624" y="128" style="fill: #5555ff">r</text>
    <text x="632" y="128" style="fill: #5555ff">s</text>
    <text x="640" y="128">[</text>
    <text x="648" y="128" style="fill: #00bbbb">0</text>
    <text x="656" y="128">:</text>
    <text x="664" y="128" style="fill: #00bbbb">0</text>
    <text x="672" y="128">]</text>
    <text x="680" y="128">:</text>
    <text x="0" y="176" style="fill: #ffffff">#</text>
    <text x="16" y="176" style="fill: #ffffff">e</text>
    <text x="24" y="176" style="fill: #ffffff">x</text>
    <text x="32" y="176" style="fill: #ffffff">p</text>
    <text x="40" y="176" style="fill: #ffffff">r</text>
    <text x="48" y="176" style="fill: #ffffff">e</text>
    <text x="56" y="176" style="fill: #ffffff">s</text>
    <text x="64" y="176" style="fill: #ffffff">s</text>
    <text x="72" y="176" style="fill: #ffffff">i</text>
    <text x="80" y="176" style="fill: #ffffff">o</text>
    <text x="88" y="176" style="fill: #ffffff">n</text>
    <text x="104" y="176" style="fill: #ffffff">r</text>
    <text x="112" y="176" style="fill: #ffffff">e</text>
    <text x="120" y="176" style="fill: #ffffff">t</text>
    <text x="128" y="176" style="fill: #ffffff">u</text>
    <text x="136" y="176" style="fill: #ffffff">r</text>
    <text x="144" y="176" style="fill: #ffffff">n</text>
    <text x="152" y="176" style="fill: #ffffff">i</text>
    <text x="160" y="176" style="fill: #ffffff">n</text>
    <text x="168" y="176" style="fill: #ffffff">g</text>
    <text x="184" y="176" style="fill: #ffffff">a</text>
    <text x="200" y="176" style="fill: #ffffff">n</text>
    <text x="208" y="176" style="fill: #ffffff">u</text>
    <text x="216" y="176" style="fill: #ffffff">m</text>
    <text x="224" y="176" style="fill: #ffffff">b</text>
    <text x="232" y="176" style="fill: #ffffff">e</text>
    <text x="240" y="176" style="fill: #ffffff">r</text>
    <text x="0" y="192">$</text>
    <text x="16" y="192">f</text>
    <text x="24" y="192">q</text>
    <text x="40" y="192">&#39;</text>
    <text x="48" y="192">.</text>
    <text x="56" y="192">f</text>
    <text x="64" y="192">r</text>
    <text x="72" y="192">a</text>
    <text x="80" y="192">m</text>
    <text x="88" y="192">e</text>
    <text x="96" y="192">s</text>
    <text x="112" y="192">|</text>
    <text x="128" y="192">l</text>
    <text x="136" y="192">e</text>
    <text x="144" y="192">n</text>
    <text x="152" y="192">g</text>
    <text x="160" y="192">t</text>
    <text x="168" y="192">h</text>
    <text x="176" y="192">&#39;</text>
    <text x="192" y="192">f</text>
    <text x="200" y="192">i</text>
    <text x="208" y="192">l</text>
    <text x="216" y="192">e</text>
    <text x="224" y="192">.</text>
    <text x="232" y="192">m</text>
    <text x="240" y="192">p</text>
    <text x="248" y="192">3</text>
    <text x="0" y="208" style="fill: #00bbbb">3</text>
    <text x="0" y="256" style="fill: #ffffff">#</text>
    <text x="16" y="256" style="fill: #ffffff">r</text>
    <text x="24" y="256" style="fill: #ffffff">a</text>
    <text x="32" y="256" style="fill: #ffffff">w</text>
    <text x="48" y="256" style="fill: #ffffff">b</text>
    <text x="56" y="256" style="fill: #ffffff">y</text>
    <text x="64" y="256" style="fill: #ffffff">t</text>
    <text x="72" y="256" style="fill: #ffffff">e</text>
    <text x="80" y="256" style="fill: #ffffff">s</text>
    <text x="0" y="272">$</text>
    <text x="16" y="272">f</text>
    <text x="24" y="272">q</text>
    <text x="40" y="272">&#39;</text>
    <text x="48" y="272">g</text>
    <text x="56" y="272">r</text>
    <text x="64" y="272">e</text>
    <text x="72" y="272">p</text>
    <text x="80" y="272">_</text>
    <text x="88" y="272">b</text>
    <text x="96" y="272">y</text>
    <text x="104" y="272">(</text>
    <text x="112" y="272">f</text>
    <text x="120" y="272">o</text>
    <text x="128" y="272">r</text>
    <text x="136" y="272">m</text>
    <text x="144" y="272">a</text>
    <text x="152" y="272">t</text>
    <text x="168" y="272">=</text>
    <text x="176" y="272">=</text>
    <text x="192" y="272">&#34;</text>
    <text x="200" y="272">p</text>
    <text x="208" y="272">n</text>
    <text x="216" y="272">g</text>
    <text x="224" y="272">&#34;</text>
    <text x="232" y="272">)</text>
    <text x="248" y="272">|</text>
    <text x="264" y="272">t</text>
    <text x="272" y="272">o</text>
    <text x="280" y="272">b</text>
    <text x="288" y="272">y</text>
    <text x="296" y="272">t</text>
    <text x="304" y="272">e</text>
    <text x="312" y="272">s</text>
    <text x="320" y="272">&#39;</text>
    <text x="336" y="272">f</text>
    <text x="344" y="272">i</text>
    <text x="352" y="272">l</text>
    <text x="360" y="272">e</text>
    <text x="368" y="272">.</text>
    <text x="376" y="272">m</text>
    <text x="384" y="272">p</text>
    <text x="392" y="272">3</text>
    <text x="408" y="272">&gt;</text>
    <text x="416" y="272">f</text>
    <text x="424" y="272">i</text>
    <text x="432" y="272">l</text>
    <text x="440" y="272">e</text>
    <text x="448" y="272">.</text>
    <text x="456" y="272">p</text>
    <text x="464" y="272">n</text>
    <text x="472" y="272">g</text>
    <text x="0" y="288">$</text>
    <text x="16" y="288">f</text>
    <text x="24" y="288">i</text>
    <text x="32" y="288">l</text>
    <text x="40" y="288">e</text>
    <text x="56" y="288">f</text>
    <text x="64" y="288">i</text>
    <text x="72" y="288">l</text>
    <text x="80" y="288">e</text>
    <text x="88" y="288">.</text>
    <text x="96" y="288">p</text>
    <text x="104" y="288">n</text>
    <text x="112" y="288">g</text>
    <text x="0" y="304">f</text>
    <text x="8" y="304">i</text>
    <text x="16" y="304">l</text>
    <text x="24" y="304">e</text>
    <text x="32" y="304">.</text>
    <text x="40" y="304">p</text>
    <text x="48" y="304">n</text>
    <text x="56" y="304">g</text>
    <text x="64" y="304">:</text>
    <text x="80" y="304">P</text>
    <text x="88" y="304">N</text>
    <text x="96" y="304">G</text>
    <text x="112" y="304">i</text>
    <text x="120" y="304">m</text>
    <text x="128" y="304">a</text>
    <text x="136" y="304">g</text>
    <text x="144" y="304">e</text>
    <text x="160" y="304">d</text>
    <text x="168" y="304">a</text>
    <text x="176" y="304">t</text>
    <text x="184" y="304">a</text>
    <text x="192" y="304">,</text>
    <text x="208" y="304">3</text>
    <text x="216" y="304">2</text>
    <text x="224" y="304">0</text>
    <text x="240" y="304">x</text>
    <text x="256" y="304">2</text>
    <text x="264" y="304">4</text>
    <text x="272" y="304">0</text>
    <text x="280" y="304">,</text>
    <text x="296" y="304">8</text>
    <text x="304" y="304">-</text>
    <text x="312" y="304">b</text>
    <text x="320" y="304">i</text>
    <text x="328" y="304">t</text>
    <text x="336" y="304">/</text>
    <text x="344" y="304">c</text>
    <text x="352" y="304">o</text>
    <text x="360" y="304">l</text>
    <text x="368" y="304">o</text>
    <text x="376" y="304">r</text>
    <text x="392" y="304">R</text>
    <text x="400" y="304">G</text>
    <text x="408" y="304">B</text>
    <text x="416" y="304">,</text>
    <text x="432" y="304">n</text>
    <text x="440" y="304">o</text>
    <text x="448" y="304">n</text>
    <text x="456" y="304">-</text>
    <text x="464" y="304">i</text>
    <text x="472" y="304">n</text>
    <text x="480" y="304">t</text>
    <text x="488" y="304">e</text>
    <text x="496" y="304">r</text>
    <text x="504" y="304">l</text>
    <text x="512" y="304">a</text>
    <text x="520" y="304">c</text>
    <text x="528" y="304">e</text>
    <text x="536" y="304">d</text>
    <text x="0" y="352" style="fill: #ffffff">#</text>
    <text x="16" y="352" style="fill: #ffffff">i</text>
    <text x="24" y="352" style="fill: #ffffff">n</text>
    <text x="32" y="352" style="fill: #ffffff">t</text>
    <text x="40" y="352" style="fill: #ffffff">e</text>
    <text x="48" y="352" style="fill: #ffffff">r</text>
    <text x="56" y="352" style="fill: #ffffff">a</text>
    <text x="64" y="352" style="fill: #ffffff">c</text>
    <text x="72" y="352" style="fill: #ffffff">t</text>
    <text x="80" y="352" style="fill: #ffffff">v</text>
    <text x="88" y="352" style="fill: #ffffff">e</text>
    <text x="104" y="352" style="fill: #ffffff">R</text>
    <text x="112" y="352" style="fill: #ffffff">E</text>
    <text x="120" y="352" style="fill: #ffffff">P</text>
    <text x="128" y="352" style="fill: #ffffff">L</text>
    <text x="0" y="368">$</text>
    <text x="16" y="368">f</text>
    <text x="24" y="368">q</text>
    <text x="40" y="368">-</text>
    <text x="48" y="368">i</text>
    <text x="64" y="368">.</text>
    <text x="80" y="368">f</text>
    <text x="88" y="368">i</text>
    <text x="96" y="368">l</text>
    <text x="104" y="368">e</text>
    <text x="112" y="368">.</text>
    <text x="120" y="368">m</text>
    <text x="128" y="368">p</text>
    <text x="136" y="368">3</text>
    <text x="0" y="384">m</text>
    <text x="8" y="384">p</text>
    <text x="16" y="384">3</text>
    <text x="24" y="384">&gt;</text>
    <text x="40" y="384">.</text>
    <text x="48" y="384">f</text>
    <text x="56" y="384">r</text>
    <text x="64" y="384">a</text>
    <text x="72" y="384">m</text>
    <text x="80" y="384">e</text>
    <text x="88" y="384">s</text>
    <text x="104" y="384">|</text>
    <text x="120" y="384">l</text>
    <text x="128" y="384">e</text>
    <text x="136" y="384">n</text>
    <text x="144" y="384">g</text>
    <text x="152" y="384">t</text>
    <text x="160" y="384">h</text>
    <text x="0" y="400" style="fill: #00bbbb">3</text>
    <text x="0" y="416">m</text>
    <text x="8" y="416">p</text>
    <text x="16" y="416">3</text>
    <text x="24" y="416">&gt;</text>
    <text x="40" y="416">.</text>
    <text x="48" y="416">h</text>
    <text x="56" y="416">e</text>
    <text x="64" y="416">a</text>
    <text x="72" y="416">d</text>
    <text x="80" y="416">e</text>
    <text x="88" y="416">r</text>
    <text x="96" y="416">[</text>
    <text x="104" y="416">0</text>
    <text x="112" y="416">]</text>
    <text x="128" y="416">|</text>
    <text x="144" y="416">r</text>
    <text x="152" y="416">e</text>
    <text x="160" y="416">p</text>
    <text x="168" y="416">l</text>
    <text x="0" y="432">&gt;</text>
    <text x="16" y="432">.</text>
    <text x="24" y="432">h</text>
    <text x="32" y="432">e</text>
    <text x="40" y="432">a</text>
    <text x="48" y="432">d</text>
    <text x="56" y="432">e</text>
    <text x="64" y="432">r</text>
    <text x="72" y="432">s</text>
    <text x="80" y="432">[</text>
    <text x="88" y="432">0</text>
    <text x="96" y="432">]</text>
    <text x="112" y="432">i</text>
    <text x="120" y="432">d</text>
    <text x="128" y="432">3</text>
    <text x="136" y="432">v</text>
    <text x="144" y="432">2</text>
    <text x="152" y="432">&gt;</text>
    <text x="168" y="432">.</text>
    <text x="176" y="432">f</text>
    <text x="184" y="432">r</text>
    <text x="192" y="432">a</text>
    <text x="200" y="432">m</text>
    <text x="208" y="432">e</text>
    <text x="216" y="432">s</text>
    <text x="224" y="432">[</text>
    <text x="232" y="432">0</text>
    <text x="240" y="432">]</text>
    <text x="248" y="432">.</text>
    <text x="256" y="432">t</text>
    <text x="264" y="432">e</text>
    <text x="272" y="432">x</text>
    <text x="280" y="432">t</text>
    <text x="32" y="448">│</text>
    <text x="40" y="448" style="fill: #bbbb00" class="u">0</text>
    <text x="48" y="448" style="fill: #bbbb00" class="u">0</text>
    <text x="56" y="448" style="fill: #bbbb00" class="u"> </text>
    <text x="64" y="448" style="fill: #bbbb00" class="u">0</text>
    <text x="72" y="448" style="fill: #bbbb00" class="u">1</text>
    <text x="80" y="448" style="fill: #bbbb00" class="u"> </text>
    <text x="88" y="448" style="fill: #bbbb00" class="u">0</text>
    <text x="96" y="448" style="fill: #bbbb00" class="u">2</text>
    <text x="104" y="448" style="fill: #bbbb00" class="u"> </text>
    <text x="112" y="448" style="fill: #bbbb00" class="u">0</text>
    <text x="120" y="448" style="fill: #bbbb00" class="u">3</text>
    <text x="128" y="448" style="fill: #bbbb00" class="u"> </text>
    <text x="136" y="448" style="fill: #bbbb00" class="u">0</text>
    <text x="144" y="448" style="fill: #bbbb00" class="u">4</text>
    <text x="152" y="448" style="fill: #bbbb00" class="u"> </text>
    <text x="160" y="448" style="fill: #bbbb00" class="u">0</text>
    <text x="168" y="448" style="fill: #bbbb00" class="u">5</text>
    <text x="176" y="448" style="fill: #bbbb00" class="u"> </text>
    <text x="184" y="448" style="fill: #bbbb00" class="u">0</text>
    <text x="192" y="448" style="fill: #bbbb00" class="u">6</text>
    <text x="200" y="448" style="fill: #bbbb00" class="u"> </text>
    <text x="208" y="448" style="fill: #bbbb00" class="u">0</text>
    <text x="216" y="448" style="fill: #bbbb00" class="u">7</text>
    <text x="224" y="448" style="fill: #bbbb00" class="u"> </text>
    <text x="232" y="448" style="fill: #bbbb00" class="u">0</text>
    <text x="240" y="448" style="fill: #bbbb00" class="u">8</text>
    <text x="248" y="448" style="fill: #bbbb00" class="u"> </text>
    <text x="256" y="448" style="fill: #bbbb00" class="u">0</text>
    <text x="264" y="448" style="fill: #bbbb00" class="u">9</text>
    <text x="272" y="448" style="fill: #bbbb00" class="u"> </text>
    <text x="280" y="448" style="fill: #bbbb00" class="u">0</text>
    <text x="288" y="448" style="fill: #bbbb00" class="u">a</text>
    <text x="296" y="448" style="fill: #bbbb00" class="u"> </text>
    <text x="304" y="448" style="fill: #bbbb00" class="u">0</text>
    <text x="312" y="448" style="fill: #bbbb00" class="u">b</text>
    <text x="320" y="448" style="fill: #bbbb00" class="u"> </text>
    <text x="328" y="448" style="fill: #bbbb00" class="u">0</text>
    <text x="336" y="448" style="fill: #bbbb00" class="u">c</text>
    <text x="344" y="448" style="fill: #bbbb00" class="u"> </text>
    <text x="352" y="448" style="fill: #bbbb00" class="u">0</text>
    <text x="360" y="448" style="fill: #bbbb00" class="u">d</text>
    <text x="368" y="448" style="fill: #bbbb00" class="u"> </text>
    <text x="376" y="448" style="fill: #bbbb00" class="u">0</text>
    <text x="384" y="448" style="fill: #bbbb00" class="u">e</text>
    <text x="392" y="448" style="fill: #bbbb00" class="u"> </text>
    <text x="400" y="448" style="fill: #bbbb00" class="u">0</text>
    <text x="408" y="448" style="fill: #bbbb00" class="u">f</text>
    <text x="416" y="448">│</text>
    <text x="424" y="448" style="fill: #bbbb00" class="u">0</text>
    <text x="432" y="448" style="fill: #bbbb00" class="u">1</text>
    <text x="440" y="448" style="fill: #bbbb00" class="u">2</text>
    <text x="448" y="448" style="fill: #bbbb00" class="u">3</text>
    <text x="456" y="448" style="fill: #bbbb00" class="u">4</text>
    <text x="464" y="448" style="fill: #bbbb00" class="u">5</text>
    <text x="472" y="448" style="fill: #bbbb00" class="u">6</text>
    <text x="480" y="448" style="fill: #bbbb00" class="u">7</text>
    <text x="488" y="448" style="fill: #bbbb00" class="u">8</text>
    <text x="496" y="448" style="fill: #bbbb00" class="u">9</text>
    <text x="504" y="448" style="fill: #bbbb00" class="u">a</text>
    <text x="512" y="448" style="fill: #bbbb00" class="u">b</text>
    <text x="520" y="448" style="fill: #bbbb00" class="u">c</text>
    <text x="528" y="448" style="fill: #bbbb00" class="u">d</text>
    <text x="536" y="448" style="fill: #bbbb00" class="u">e</text>
    <text x="544" y="448" style="fill: #bbbb00" class="u">f</text>
    <text x="552" y="448">│</text>
    <text x="0" y="464" style="fill: #bbbb00">0</text>
    <text x="8" y="464" style="fill: #bbbb00">x</text>
    <text x="16" y="464" style="fill: #bbbb00">1</text>
    <text x="24" y="464" style="fill: #bbbb00">0</text>
    <text x="32" y="464">│</text>
    <text x="160" y="464">4</text>
    <text x="168" y="464">c</text>
    <text x="184" y="464">6</text>
    <text x="192" y="464">1</text>
    <text x="208" y="464">7</text>
    <text x="216" y="464">6</text>
    <text x="232" y="464">6</text>
    <text x="240" y="464">6</text>
    <text x="256" y="464">3</text>
    <text x="264" y="464">5</text>
    <text x="280" y="464">3</text>
    <text x="288" y="464">8</text>
    <text x="304" y="464">2</text>
    <text x="312" y="464">e</text>
    <text x="328" y="464">3</text>
    <text x="336" y="464">7</text>
    <text x="352" y="464">3</text>
    <text x="360" y="464">6</text>
    <text x="376" y="464">2</text>
    <text x="384" y="464">e</text>
    <text x="400" y="464">3</text>
    <text x="408" y="464">1</text>
    <text x="416" y="464">│</text>
    <text x="464" y="464">L</text>
    <text x="472" y="464">a</text>
    <text x="480" y="464">v</text>
    <text x="488" y="464">f</text>
    <text x="496" y="464">5</text>
    <text x="504" y="464">8</text>
    <text x="512" y="464">.</text>
    <text x="520" y="464">7</text>
    <text x="528" y="464">6</text>
    <text x="536" y="464">.</text>
    <text x="544" y="464">1</text>
    <text x="552" y="464">│</text>
    <text x="560" y="464">.</text>
    <text x="568" y="464" style="fill: #5555ff">h</text>
    <text x="576" y="464" style="fill: #5555ff">e</text>
    <text x="584" y="464" style="fill: #5555ff">a</text>
    <text x="592" y="464" style="fill: #5555ff">d</text>
    <text x="600" y="464" style="fill: #5555ff">e</text>
    <text x="608" y="464" style="fill: #5555ff">r</text>
    <text x="616" y="464" style="fill: #5555ff">s</text>
    <text x="624" y="464">[</text>
    <text x="632" y="464" style="fill: #00bbbb">0</text>
    <text x="640" y="464">]</text>
    <text x="648" y="464">.</text>
    <text x="656" y="464" style="fill: #5555ff">f</text>
    <text x="664" y="464" style="fill: #5555ff">r</text>
    <text x="672" y="464" style="fill: #5555ff">a</text>
    <text x="680" y="464" style="fill: #5555ff">m</text>
    <text x="688" y="464" style="fill: #5555ff">e</text>
    <text x="696" y="464" style="fill: #5555ff">s</text>
    <text x="704" y="464">[</text>
    <text x="712" y="464" style="fill: #00bbbb">0</text>
    <text x="720" y="464">]</text>
    <text x="728" y="464">.</text>
    <text x="736" y="464" style="fill: #5555ff">t</text>
    <text x="744" y="464" style="fill: #5555ff">e</text>
    <text x="752" y="464" style="fill: #5555ff">x</text>
    <text x="760" y="464" style="fill: #5555ff">t</text>
    <text x="768" y="464">:</text>
    <text x="784" y="464" style="fill: #00bb00">&#34;</text>
    <text x="792" y="464" style="fill: #00bb00">L</text>
    <text x="800" y="464" style="fill: #00bb00">a</text>
    <text x="808" y="464" style="fill: #00bb00">v</text>
    <text x="816" y="464" style="fill: #00bb00">f</text>
    <text x="824" y="464" style="fill: #00bb00">5</text>
    <text x="832" y="464" style="fill: #00bb00">8</text>
    <text x="840" y="464" style="fill: #00bb00">.</text>
    <text x="848" y="464" style="fill: #00bb00">7</text>
    <text x="856" y="464" style="fill: #00bb00">6</text>
    <text x="864" y="464" style="fill: #00bb00">.</text>
    <text x="872" y="464" style="fill: #00bb00">1</text>
    <text x="880" y="464" style="fill: #00bb00">0</text>
    <text x="888" y="464" style="fill: #00bb00">0</text>
    <text x="896" y="464" style="fill: #00bb00">&#34;</text>
    <text x="0" y="480" style="fill: #bbbb00">0</text>
    <text x="8" y="480" style="fill: #bbbb00">x</text>
    <text x="16" y="480" style="fill: #bbbb00">2</text>
    <text x="24" y="480" style="fill: #bbbb00">0</text>
    <text x="32" y="480">│</text>
    <text x="40" y="480">3</text>
    <text x="48" y="480">0</text>
    <text x="64" y="480">3</text>
    <text x="72" y="480">0</text>
    <text x="88" y="480" style="fill: #555555">0</text>
    <text x="96" y="480" style="fill: #555555">0</text>
    <text x="416" y="480">│</text>
    <text x="424" y="480">0</text>
    <text x="432" y="480">0</text>
    <text x="440" y="480" style="fill: #555555">.</text>
    <text x="552" y="480">│</text>
    <text x="0" y="496">&gt;</text>
    <text x="16" y="496">.</text>
    <text x="24" y="496">h</text>
    <text x="32" y="496">e</text>
    <text x="40" y="496">a</text>
    <text x="48" y="496">d</text>
    <text x="56" y="496">e</text>
    <text x="64" y="496">r</text>
    <text x="72" y="496">s</text>
    <text x="80" y="496">[</text>
    <text x="88" y="496">0</text>
    <text x="96" y="496">]</text>
    <text x="112" y="496">i</text>
    <text x="120" y="496">d</text>
    <text x="128" y="496">3</text>
    <text x="136" y="496">v</text>
    <text x="144" y="496">2</text>
    <text x="152" y="496">&gt;</text>
    <text x="168" y="496">.</text>
    <text x="176" y="496">f</text>
    <text x="184" y="496">r</text>
    <text x="192" y="496">a</text>
    <text x="200" y="496">m</text>
    <text x="208" y="496">e</text>
    <text x="216" y="496">s</text>
    <text x="224" y="496">[</text>
    <text x="232" y="496">0</text>
    <text x="240" y="496">]</text>
    <text x="248" y="496">.</text>
    <text x="256" y="496">t</text>
    <text x="264" y="496">e</text>
    <text x="272" y="496">x</text>
    <text x="280" y="496">t</text>
    <text x="296" y="496">|</text>
    <text x="312" y="496">t</text>
    <text x="320" y="496">o</text>
    <text x="328" y="496">v</text>
    <text x="336" y="496">a</text>
    <text x="344" y="496">l</text>
    <text x="352" y="496">u</text>
    <text x="360" y="496">e</text>
    <text x="0" y="512" style="fill: #00bb00">&#34;</text>
    <text x="8" y="512" style="fill: #00bb00">L</text>
    <text x="16" y="512" style="fill: #00bb00">a</text>
    <text x="24" y="512" style="fill: #00bb00">v</text>
    <text x="32" y="512" style="fill: #00bb00">f</text>
    <text x="40" y="512" style="fill: #00bb00">5</text>
    <text x="48" y="512" style="fill: #00bb00">8</text>
    <text x="56" y="512" style="fill: #00bb00">.</text>
    <text x="64" y="512" style="fill: #00bb00">7</text>
    <text x="72" y="512" style="fill: #00bb00">6</text>
    <text x="80" y="512" style="fill: #00bb00">.</text>
    <text x="88" y="512" style="fill: #00bb00">1</text>
    <text x="96" y="512" style="fill: #00bb00">0</text>
    <text x="104" y="512" style="fill: #00bb00">0</text>
    <text x="112" y="512" style="fill: #00bb00">&#34;</text>
    <text x="0" y="528">&gt;</text>
    <text x="16" y="528">.</text>
    <text x="24" y="528">h</text>
    <text x="32" y="528">e</text>
    <text x="40" y="528">a</text>
    <text x="48" y="528">d</text>
    <text x="56" y="528">e</text>
    <text x="64" y="528">r</text>
    <text x="72" y="528">s</text>
    <text x="80" y="528">[</text>
    <text x="88" y="528">0</text>
    <text x="96" y="528">]</text>
    <text x="112" y="528">i</text>
    <text x="120" y="528">d</text>
    <text x="128" y="528">3</text>
    <text x="136" y="528">v</text>
    <text x="144" y="528">2</text>
    <text x="152" y="528">&gt;</text>
    <text x="168" y="528">^</text>
    <text x="176" y="528">D</text>
    <text x="0" y="544">m</text>
    <text x="8" y="544">p</text>
    <text x="16" y="544">3</text>
    <text x="24" y="544">&gt;</text>
    <text x="40" y="544">^</text>
    <text x="48" y="544">D</text>
    <text x="0" y="560">$</text>
</svg>
